<svg height="512" width="512" xmlns="http://www.w3.org/2000/svg"><circle cx="269" cy="264.817" r="243" fill="#8cc53f"/><path d="M512 264.816c0 12.09-.88 23.97-2.59 35.59-1.96 13.4-5.02 26.44-9.08 39.03l-214.06-73.49 214.71-73.71c3.95 12.65 6.9 25.74 8.74 39.19 1.5 10.91 2.28 22.06 2.28 33.39z" style="adobe-blending-mode:screen" opacity=".2" fill="#ff0"/><path d="M512 264.816c0 12.09-.88 23.97-2.59 35.59l-223.14-34.46 223.45-34.52c1.5 10.91 2.28 22.06 2.28 33.39z" style="adobe-blending-mode:screen" opacity=".2" fill="#ff0"/><path d="M171.88 358.026v129.28c0 .11 0 .22-.01.32-3.51-1.53-6.97-3.14-10.39-4.83-1.91-.94-3.79-1.91-5.67-2.89v-121.88c0-3.61 2.93-6.54 6.54-6.54h2.98c.45 0 .9.05 1.32.13.01.01.02.01.03.01 2.97.62 5.2 3.25 5.2 6.4zM149.18 360.226l-41.98 85.9c-2.86-2.55-5.65-5.17-8.38-7.85-1.28-1.25-2.55-2.53-3.81-3.81l39.74-81.29a6.494 6.494 0 012.86-2.93c.26-.14.54-.26.82-.36a6.432 6.432 0 014.44.02c.2.07.4.15.6.25.01 0 .02.01.03.01l2.68 1.31a6.533 6.533 0 013 8.75zM267.09 507.806c-3.76-.03-7.49-.14-11.2-.34h-.01c-1.96-.1-3.91-.23-5.85-.38l-72.4-146.86c-.03-.06-.05-.11-.08-.17-.01-.01-.01-.03-.01-.04-.07-.14-.13-.28-.17-.42-.02-.03-.03-.05-.03-.08-.04-.09-.07-.18-.09-.27-.03-.07-.05-.15-.07-.22-.04-.16-.08-.32-.11-.48s-.05-.32-.07-.47v-.03a5.12 5.12 0 01-.04-.67v-.03c0-.15.01-.3.02-.44l.03-.33.06-.39.09-.39c.1-.45.26-.89.47-1.31 0 0 .01-.01 0-.02.11-.2.22-.41.34-.6.13-.2.26-.39.41-.58.14-.18.29-.35.45-.51.03-.02.05-.05.07-.06.13-.14.26-.26.4-.37a4.665 4.665 0 01.64-.47c.03-.03.07-.05.11-.07.18-.12.38-.23.58-.33l2.68-1.31c.92-.45 1.9-.67 2.87-.67.15 0 .3.01.45.02.14.01.28.02.41.04.03 0 .06.01.09.01.11.02.21.03.31.06.55.1 1.08.28 1.58.52 1.28.62 2.37 1.66 3.04 3.03l74.41 150.93c.58 1.19.77 2.48.62 3.7z" fill="#4d4d4d"/><path d="M166.68 351.626c-2.97.62-5.2 3.25-5.2 6.4v124.77c-1.91-.94-3.79-1.91-5.67-2.89v-121.88c0-3.61 2.93-6.54 6.54-6.54h2.98c.45 0 .9.05 1.32.13.01.01.02.01.03.01zM143.47 350.156a6.56 6.56 0 00-3.05 3.02l-41.6 85.1c-1.28-1.25-2.55-2.53-3.81-3.81l39.74-81.29a6.494 6.494 0 012.86-2.93 6.52 6.52 0 014.46-.58c.27.06.53.14.8.24.2.07.4.15.6.25zM183.3 360.226l72.58 147.24c-1.96-.1-3.91-.23-5.85-.38l-72.4-146.86c-.03-.06-.05-.11-.08-.17-.01-.01-.01-.03-.01-.04-.07-.14-.13-.28-.17-.42-.02-.03-.03-.05-.03-.08-.04-.09-.07-.18-.09-.27-.03-.07-.05-.15-.07-.22-.04-.16-.08-.32-.11-.48s-.05-.32-.07-.47v-.03a5.12 5.12 0 01-.04-.67v-.03c0-.15.01-.3.02-.44l.03-.33.06-.39.09-.39c.11-.45.27-.89.47-1.31 0 0 .01-.01 0-.02.11-.2.22-.41.34-.6.13-.2.26-.39.41-.58.14-.18.29-.35.45-.51.03-.02.05-.05.07-.06.13-.14.26-.26.4-.37a4.665 4.665 0 01.64-.47c.03-.03.07-.05.11-.07.18-.12.38-.23.58-.33l2.68-1.31c.92-.45 1.9-.67 2.87-.67.15 0 .3.01.45.02.14.01.28.02.41.04.03 0 .06.01.09.01.11.02.21.03.31.06.55.1 1.08.28 1.58.52-.01.01-.03.01-.04.02l-2.68 1.31a6.542 6.542 0 00-3 8.75z"/><path d="M177.55 358.026v2.03a6.437 6.437 0 01-.39-4.26c.25.7.39 1.45.39 2.23z"/><path d="M326.73 242.656v46.58c0 3.24-1.77 5.87-3.96 5.87h-28.7c-2.19 0-3.97-2.63-3.97-5.87v-46.58c0-3.24 1.78-5.87 3.97-5.87h28.7c2.19 0 3.96 2.63 3.96 5.87z" fill="#333"/><path d="M342.215 235.756v60.38c0 4.2-1.78 7.61-3.97 7.61h-28.69c-2.2 0-3.97-3.41-3.97-7.61v-60.38c0-4.2 1.77-7.61 3.97-7.61h28.69c2.19 0 3.97 3.41 3.97 7.61z"/><path d="M345.05 235.756v60.38c0 4.2-1.78 7.61-3.97 7.61h-28.69c-2.2 0-3.97-3.41-3.97-7.61v-60.38c0-4.2 1.77-7.61 3.97-7.61h28.69c2.19 0 3.97 3.41 3.97 7.61z" fill="#333"/><path d="M345.05 277.976v18.16c0 4.2-1.78 7.61-3.97 7.61h-28.69c-2.2 0-3.97-3.41-3.97-7.61v-18.16h36.63z"/><path d="M326.73 282.366v6.87c0 3.24-1.77 5.87-3.96 5.87h-28.7c-2.19 0-3.97-2.63-3.97-5.87v-6.87h36.63z"/><g fill="#335c64"><path d="M26.286 189.472h270.07v162.012H26.286z"/><path style="adobe-blending-mode:multiply" opacity=".5" d="M26.286 189.472h270.07v162.012H26.286z"/></g><path d="M39.536 279.442a5.875 5.875 0 01-5.875 5.875H14.763a5.875 5.875 0 01-5.875-5.875v-36.785a5.875 5.875 0 015.875-5.875h18.898a5.875 5.875 0 015.875 5.875v36.785zM196.774 329.613c5.809 0 10.519 2.63 10.519 5.875v18.898c0 3.245-4.709 5.875-10.519 5.875h-65.86c-5.809 0-10.519-2.63-10.519-5.875v-18.898c0-3.245 4.709-5.875 10.519-5.875h65.86z" fill="#231f20"/><path fill="#335c64" d="M32.398 211.907h263.958v133.887H32.398z"/><path d="M242.82 75.916l-1.8 17.44c-.14 1.36-2.16 2.28-4.49 2.04l-62.68-6.49-72.3-7.48c-2.33-.24-4.12-1.56-3.98-2.92l1.8-17.44c.15-1.36 2.17-2.28 4.49-2.04l93.53 9.69 41.46 4.29c2.32.24 4.11 1.55 3.97 2.91z" fill="#4d4d4d"/><ellipse cx="87.148" cy="127.272" rx="75.278" ry="75.249" fill="#f5ba3d"/><ellipse cx="87.148" cy="127.272" rx="75.278" ry="75.249" fill="#895881"/><ellipse cx="235.417" cy="132.945" rx="68.861" ry="68.838" fill="#f5ba3d"/><ellipse cx="235.417" cy="132.945" rx="68.861" ry="68.838" fill="#895881"/><g fill="#c6a9b5"><circle cx="88.566" cy="125.825" r="73.861"/><circle cx="88.566" cy="125.825" r="73.861" style="adobe-blending-mode:multiply"/></g><circle cx="88.566" cy="125.825" r="68.738" fill="#c6a9b5"/><circle cx="88.566" cy="125.825" r="21.794" fill="#895881"/><circle cx="87.166" cy="127.225" r="13.847" style="adobe-blending-mode:screen" fill="#c59b6d"/><circle cx="88.566" cy="125.825" r="13.847" fill="#4d4d4d"/><circle cx="45.687" cy="115.628" r="13.827" style="adobe-blending-mode:screen" fill="#c59b6d"/><circle cx="128.867" cy="115.628" r="13.827" style="adobe-blending-mode:screen" fill="#c59b6d"/><circle cx="111.918" cy="164.053" r="13.827" style="adobe-blending-mode:screen" fill="#c59b6d"/><circle cx="62.53" cy="164.053" r="13.827" style="adobe-blending-mode:screen" fill="#c59b6d"/><circle cx="87.166" cy="86.246" r="13.827" style="adobe-blending-mode:screen" fill="#c59b6d"/><circle cx="47.086" cy="112.828" r="13.827" fill="#4d4d4d"/><circle cx="130.267" cy="112.828" r="13.827" fill="#4d4d4d"/><circle cx="113.318" cy="161.253" r="13.827" fill="#4d4d4d"/><circle cx="63.929" cy="161.253" r="13.827" fill="#4d4d4d"/><circle cx="88.566" cy="83.447" r="13.827" fill="#4d4d4d"/><path d="M242.82 75.916l-1.8 17.44c-.14 1.36-2.16 2.28-4.49 2.04l-62.68-6.49a67.546 67.546 0 0123.54-20.19l41.46 4.29c2.32.24 4.11 1.55 3.97 2.91z" fill="#f5ba3d"/><path d="M242.82 75.916l-1.8 17.44c-.14 1.36-2.16 2.28-4.49 2.04l-62.68-6.49a67.546 67.546 0 0123.54-20.19l41.46 4.29c2.32.24 4.11 1.55 3.97 2.91z" style="adobe-blending-mode:multiply"/><g fill="#c6a9b5"><circle cx="236.843" cy="131.495" r="67.452"/><circle cx="236.843" cy="131.495" r="67.452" style="adobe-blending-mode:multiply"/></g><circle cx="236.843" cy="131.495" r="62.774" fill="#c6a9b5"/><circle cx="236.843" cy="131.495" r="19.904" fill="#895881"/><circle cx="235.564" cy="132.774" r="12.646" style="adobe-blending-mode:screen" fill="#c59b6d"/><circle cx="236.843" cy="131.495" r="12.646" fill="#4d4d4d"/><circle cx="197.684" cy="122.183" r="12.627" style="adobe-blending-mode:screen" fill="#c59b6d"/><circle cx="273.648" cy="122.183" r="12.627" style="adobe-blending-mode:screen" fill="#c59b6d"/><circle cx="258.169" cy="166.406" r="12.627" style="adobe-blending-mode:screen" fill="#c59b6d"/><circle cx="213.065" cy="166.406" r="12.627" style="adobe-blending-mode:screen" fill="#c59b6d"/><circle cx="235.564" cy="95.35" r="12.627" style="adobe-blending-mode:screen" fill="#c59b6d"/><circle cx="198.962" cy="119.626" r="12.627" fill="#4d4d4d"/><circle cx="274.926" cy="119.626" r="12.627" fill="#4d4d4d"/><circle cx="259.447" cy="163.85" r="12.627" fill="#4d4d4d"/><circle cx="214.344" cy="163.85" r="12.627" fill="#4d4d4d"/><circle cx="236.843" cy="92.794" r="12.627" fill="#4d4d4d"/><g fill="#ba334d"><circle cx="264.02" cy="237.582" r="12.211"/><circle cx="264.02" cy="237.582" r="12.211" style="adobe-blending-mode:multiply"/></g><circle cx="265.519" cy="236.083" r="10.711" fill="#ba334d"/><g fill="#ba334d"><circle cx="226.974" cy="237.582" r="12.211"/><circle cx="226.974" cy="237.582" r="12.211" style="adobe-blending-mode:multiply"/></g><circle cx="228.473" cy="236.083" r="10.711" fill="#ba334d"/><g fill="#ba334d"><circle cx="189.172" cy="237.582" r="12.211"/><circle cx="189.172" cy="237.582" r="12.211" style="adobe-blending-mode:multiply"/></g><circle cx="190.672" cy="236.083" r="10.711" fill="#ba334d"/><g style="adobe-blending-mode:screen"><g style="adobe-blending-mode:normal"><path d="M153.24 242.59H52.406c-2.643 0-4.786-1.769-4.786-3.951s2.143-3.951 4.786-3.951H153.24c2.643 0 4.786 1.769 4.786 3.951s-2.143 3.951-4.786 3.951z" fill="#335c64"/><path d="M153.24 242.59H52.406c-2.643 0-4.786-1.769-4.786-3.951s2.143-3.951 4.786-3.951H153.24c2.643 0 4.786 1.769 4.786 3.951s-2.143 3.951-4.786 3.951z" style="adobe-blending-mode:multiply" opacity=".5" fill="#37673f"/></g></g><g style="adobe-blending-mode:screen"><g style="adobe-blending-mode:normal"><path d="M153.24 263.038H52.406c-2.643 0-4.786-1.769-4.786-3.951s2.143-3.951 4.786-3.951H153.24c2.643 0 4.786 1.769 4.786 3.951s-2.143 3.951-4.786 3.951z" fill="#335c64"/><path d="M153.24 263.038H52.406c-2.643 0-4.786-1.769-4.786-3.951s2.143-3.951 4.786-3.951H153.24c2.643 0 4.786 1.769 4.786 3.951s-2.143 3.951-4.786 3.951z" style="adobe-blending-mode:multiply" opacity=".5" fill="#37673f"/></g></g><g style="adobe-blending-mode:screen"><g style="adobe-blending-mode:normal"><path d="M153.24 283.486H52.406c-2.643 0-4.786-1.769-4.786-3.951s2.143-3.951 4.786-3.951H153.24c2.643 0 4.786 1.769 4.786 3.951s-2.143 3.951-4.786 3.951z" fill="#335c64"/><path d="M153.24 283.486H52.406c-2.643 0-4.786-1.769-4.786-3.951s2.143-3.951 4.786-3.951H153.24c2.643 0 4.786 1.769 4.786 3.951s-2.143 3.951-4.786 3.951z" style="adobe-blending-mode:multiply" opacity=".5" fill="#37673f"/></g></g><g style="adobe-blending-mode:screen"><g style="adobe-blending-mode:normal"><path d="M153.24 303.934H52.406c-2.643 0-4.786-1.769-4.786-3.951s2.143-3.951 4.786-3.951H153.24c2.643 0 4.786 1.769 4.786 3.951s-2.143 3.951-4.786 3.951z" fill="#335c64"/><path d="M153.24 303.934H52.406c-2.643 0-4.786-1.769-4.786-3.951s2.143-3.951 4.786-3.951H153.24c2.643 0 4.786 1.769 4.786 3.951s-2.143 3.951-4.786 3.951z" style="adobe-blending-mode:multiply" opacity=".5" fill="#37673f"/></g></g><g style="adobe-blending-mode:screen"><g style="adobe-blending-mode:normal"><path d="M153.24 324.382H52.406c-2.643 0-4.786-1.769-4.786-3.951s2.143-3.951 4.786-3.951H153.24c2.643 0 4.786 1.769 4.786 3.951s-2.143 3.951-4.786 3.951z" fill="#335c64"/><path d="M153.24 324.382H52.406c-2.643 0-4.786-1.769-4.786-3.951s2.143-3.951 4.786-3.951H153.24c2.643 0 4.786 1.769 4.786 3.951s-2.143 3.951-4.786 3.951z" style="adobe-blending-mode:multiply" opacity=".5" fill="#37673f"/></g></g><path d="M155.133 241.222H54.299c-2.643 0-4.786-1.769-4.786-3.951s2.143-3.951 4.786-3.951h100.834c2.643 0 4.786 1.769 4.786 3.951s-2.143 3.951-4.786 3.951z" fill="#335c64"/><path d="M155.133 241.222H54.299c-2.643 0-4.786-1.769-4.786-3.951s2.143-3.951 4.786-3.951h100.834c2.643 0 4.786 1.769 4.786 3.951s-2.143 3.951-4.786 3.951z" style="adobe-blending-mode:multiply" opacity=".5" fill="#37673f"/><path d="M155.133 261.67H54.299c-2.643 0-4.786-1.769-4.786-3.951 0-2.182 2.143-3.951 4.786-3.951h100.834c2.643 0 4.786 1.769 4.786 3.951 0 2.182-2.143 3.951-4.786 3.951z" fill="#335c64"/><path d="M155.133 261.67H54.299c-2.643 0-4.786-1.769-4.786-3.951 0-2.182 2.143-3.951 4.786-3.951h100.834c2.643 0 4.786 1.769 4.786 3.951 0 2.182-2.143 3.951-4.786 3.951z" style="adobe-blending-mode:multiply" opacity=".5" fill="#37673f"/><path d="M155.133 282.119H54.299c-2.643 0-4.786-1.769-4.786-3.951s2.143-3.951 4.786-3.951h100.834c2.643 0 4.786 1.769 4.786 3.951s-2.143 3.951-4.786 3.951z" fill="#335c64"/><path d="M155.133 282.119H54.299c-2.643 0-4.786-1.769-4.786-3.951s2.143-3.951 4.786-3.951h100.834c2.643 0 4.786 1.769 4.786 3.951s-2.143 3.951-4.786 3.951z" style="adobe-blending-mode:multiply" opacity=".5" fill="#37673f"/><path d="M155.133 302.566H54.299c-2.643 0-4.786-1.769-4.786-3.951s2.143-3.951 4.786-3.951h100.834c2.643 0 4.786 1.769 4.786 3.951s-2.143 3.951-4.786 3.951z" fill="#335c64"/><path d="M155.133 302.566H54.299c-2.643 0-4.786-1.769-4.786-3.951s2.143-3.951 4.786-3.951h100.834c2.643 0 4.786 1.769 4.786 3.951s-2.143 3.951-4.786 3.951z" style="adobe-blending-mode:multiply" opacity=".5" fill="#37673f"/><path d="M155.133 323.015H54.299c-2.643 0-4.786-1.769-4.786-3.951s2.143-3.951 4.786-3.951h100.834c2.643 0 4.786 1.769 4.786 3.951s-2.143 3.951-4.786 3.951z" fill="#335c64"/><path d="M155.133 323.015H54.299c-2.643 0-4.786-1.769-4.786-3.951s2.143-3.951 4.786-3.951h100.834c2.643 0 4.786 1.769 4.786 3.951s-2.143 3.951-4.786 3.951z" style="adobe-blending-mode:multiply" opacity=".5" fill="#37673f"/><path d="M159.922 237.268c0 1.392-.876 2.619-2.195 3.321.042-.193.058-.386.058-.586 0-2.178-2.137-3.949-4.783-3.949H52.173c-.96 0-1.853.234-2.604.641.325-1.909 2.32-3.377 4.733-3.377h100.83c2.645.002 4.79 1.772 4.79 3.95zM159.922 257.718c0 1.392-.876 2.619-2.195 3.322.042-.193.058-.386.058-.586 0-2.185-2.137-3.949-4.783-3.949H52.173c-.96 0-1.853.234-2.604.641.325-1.909 2.32-3.377 4.733-3.377h100.83c2.645 0 4.79 1.771 4.79 3.949z" style="adobe-blending-mode:multiply" opacity=".5" fill="#335c64"/><g><path d="M159.922 278.168c0 1.392-.876 2.619-2.195 3.315.042-.186.058-.379.058-.579 0-2.184-2.137-3.949-4.783-3.949H52.173c-.96 0-1.853.234-2.604.641.325-1.916 2.32-3.377 4.733-3.377h100.83c2.645 0 4.79 1.764 4.79 3.949z" style="adobe-blending-mode:multiply" opacity=".5" fill="#335c64"/></g><g><path d="M159.922 298.618c0 1.392-.876 2.612-2.195 3.315.042-.186.058-.379.058-.579 0-2.185-2.137-3.956-4.783-3.956H52.173c-.96 0-1.853.234-2.604.641.334-1.909 2.329-3.377 4.733-3.377h100.83c2.645 0 4.79 1.771 4.79 3.956z" style="adobe-blending-mode:multiply" opacity=".5" fill="#335c64"/></g><g><path d="M159.922 319.061c0 1.392-.876 2.619-2.195 3.322.042-.193.058-.386.058-.586 0-2.178-2.137-3.949-4.783-3.949H52.173c-.96 0-1.853.234-2.604.641.325-1.909 2.32-3.377 4.733-3.377h100.83c2.645 0 4.79 1.771 4.79 3.949z" style="adobe-blending-mode:multiply" opacity=".5" fill="#335c64"/></g><path d="M368.655 229.906v72.08c0 5.02-1.78 9.09-3.97 9.09h-28.69c-2.2 0-3.97-4.07-3.97-9.09v-72.08c0-5.02 1.77-9.09 3.97-9.09h28.69c2.19 0 3.97 4.07 3.97 9.09z"/><path style="adobe-blending-mode:screen" fill="#333" d="M308.42 238.206h36.63v9.62h-36.63z"/><path d="M371.49 229.906v72.08c0 5.02-1.78 9.09-3.97 9.09h-28.69c-2.2 0-3.97-4.07-3.97-9.09v-72.08c0-5.02 1.77-9.09 3.97-9.09h28.69c2.19 0 3.97 4.07 3.97 9.09z" fill="#333"/><path d="M371.49 275.346v26.64c0 5.02-1.78 9.09-3.97 9.09h-28.69c-2.2 0-3.97-4.07-3.97-9.09v-26.64h36.63z"/><path style="adobe-blending-mode:screen" fill="#333" d="M334.86 233.406h36.63v9.61h-36.63z"/></svg>