<svg data-name="Layer 1" xmlns="http://www.w3.org/2000/svg" width="1022" height="795"><path d="M829 105.37v425.26A105.34 105.34 0 01723.63 636H298.37a105 105 0 01-65.55-22.86 106.41 106.41 0 01-20.26-21.34A105.38 105.38 0 01193 530.63V105.37q0-4.23.33-8.37a104 104 0 012.51-16A105.4 105.4 0 01298.37 0h425.26a105.4 105.4 0 01102.53 81 104 104 0 012.51 16q.33 4.14.33 8.37z" fill="#546e7a" opacity=".1"/><path d="M519 335h310v16H519v111h310v16H519v158h-16V478H193v-16h310V351H193v-16h310V224H193v-16h310V97H193.33a104 104 0 012.51-16H503V0h16v81h307.16a104 104 0 012.51 16H519v111h310v16H519z" fill="#546e7a" opacity=".1"/><ellipse cx="511" cy="714.83" rx="511" ry="80.17" fill="#546e7a" opacity=".1"/><ellipse cx="902.7" cy="681.14" rx="25.3" ry="4.87" fill="#546e7a"/><ellipse cx="902.28" cy="679.08" rx="2.95" ry="3.86" fill="#3f3d56"/><ellipse cx="902.28" cy="674.36" rx="2.95" ry="3.86" fill="#3f3d56"/><ellipse cx="902.28" cy="669.65" rx="2.95" ry="3.86" fill="#3f3d56"/><ellipse cx="902.28" cy="664.94" rx="2.95" ry="3.86" fill="#3f3d56"/><ellipse cx="902.28" cy="660.22" rx="2.95" ry="3.86" fill="#3f3d56"/><ellipse cx="902.28" cy="655.51" rx="2.95" ry="3.86" fill="#3f3d56"/><ellipse cx="902.28" cy="650.8" rx="2.95" ry="3.86" fill="#3f3d56"/><path d="M913.3 618.55a13.58 13.58 0 001.1-1.62l-7.74-1.27 8.37.06a14.16 14.16 0 00.27-11.18l-11.23 5.83 10.36-7.62a14.12 14.12 0 10-23.31 15.8 14.43 14.43 0 00-1.61 2.57l10 5.22-10.71-3.6a14.09 14.09 0 002.27 13.25 14.11 14.11 0 1022.18 0 14.1 14.1 0 000-17.44z" fill="#546e7a"/><path d="M888.1 627.27a14.05 14.05 0 003 8.72 14.11 14.11 0 1022.18 0c1.91-2.4-25.18-10.3-25.18-8.72z" opacity=".1"/><path fill="#46455b" d="M206.5 557h603v138.5h-603zM210.5 413.5l-57 43 44 40 25-40 34-43h-46zM799.5 465.5l-8-9-51-29 47-1 73 30-30 19-31-10z"/><path fill="#46455b" d="M206.5 467.5l50-54v124l-34 28-21-29 5-69zM800.5 489.5l-9-33-17-22-34-7v138h69l-9-76z"/><path d="M267.55 376.5h466.9A15.55 15.55 0 01750 392.05V534.5H252V392.05a15.55 15.55 0 0115.55-15.55z" fill="#46455b"/><path fill="#46455b" d="M222.5 565.5l34-42h484l51 42h-569z"/><path opacity=".05" d="M222.5 565.5l34-42h484l51 42h-569z"/><path fill="#46455b" d="M153.5 456.5h69v239h-69z"/><path fill="#fff" opacity=".05" d="M153.5 456.5h69v239h-69z"/><path fill="#46455b" d="M791.5 456.5h69v239h-69z"/><path fill="#fff" opacity=".05" d="M791.5 456.5h69v239h-69z"/><ellipse cx="440" cy="306.5" rx="80" ry="105.5" fill="#2f2e41"/><path fill="#2f2e41" d="M386 261h89v124h-89z"/><path opacity=".1" d="M386 261h89v124h-89z"/><path d="M392.46 333.72a26.08 26.08 0 01-23.3 9.34c-.4 6.22 3.82 11.68 7.81 16.47L408.2 397a1.75 1.75 0 003.1.26l47.7-45.25c-4.76 2-10.39-1.17-13-5.63s-2.87-9.82-3.11-15q-.52-11.6-1-23.18c-.08-1.72-.25-3.62-1.52-4.78a6.52 6.52 0 00-3.4-1.29c-7.53-1.29-31-8-35.35-.08-2 3.61-1.1 10.65-2 14.73-1.35 6.05-3.26 12.08-7.16 16.94z" fill="#fbbebe"/><path d="M392.46 333.72a26.08 26.08 0 01-23.3 9.34c-.4 6.22 3.82 11.68 7.81 16.47L408.2 397a1.75 1.75 0 003.1.26l47.7-45.25c-4.76 2-10.39-1.17-13-5.63s-2.87-9.82-3.11-15q-.52-11.6-1-23.18c-.08-1.72-.25-3.62-1.52-4.78a6.52 6.52 0 00-3.4-1.29c-7.53-1.29-31-8-35.35-.08-2 3.61-1.1 10.65-2 14.73-1.35 6.05-3.26 12.08-7.16 16.94z" opacity=".1"/><circle cx="427" cy="279" r="47" fill="#fbbebe"/><path d="M410 373.64l-7.54-23.77c-3-9.52-7.26-20.31-16.76-23.38-6-1.92-12.47-.16-18.72-.69-12.16-1.05-24-10.72-35.37-6.29-14 5.44-13.88 26.94-26.31 35.38 0 20.09 6.49 38.75 10 58.52s4.52 41.11-4.64 59c-3.88 7.58-9.43 14.18-13.57 21.62a67.15 67.15 0 00-7.94 40.28q79.62 1 159.26.48c-.49-6.88-3.56-13.66-4.06-20.54a14.21 14.21 0 01.48-6.2c1.17-3 4.15-4.79 6.7-6.74a34.55 34.55 0 008.53-9.58c3.54-5.89 5.22-12.68 6.86-19.36l19.88-81c2.37-9.65 4.67-20.18.55-29.22-4.52-9.93-15.36-15.09-25.37-19.44-6-2.63-12.9-5.29-19-2.87-5 2-8.14 6.79-11.3 11.13A110.66 110.66 0 01410 373.64z" fill="#f86d70"/><path d="M304.77 362.02c-1.56 5.84-.69 12.08-1.84 18-1.93 9.91-9.16 17.79-14 26.63a60.57 60.57 0 00-5.3 44.92c1.22 4.41 3.39 9.13 7.67 10.75 3.06 1.17 6.48.44 9.75.73 4.32.38 8.81 2.52 12.8.82 4.93-2.1 5.91-8.51 6.45-13.84a162.14 162.14 0 017.93-36.29c4-11.76 9.49-23.43 9.41-35.86-.06-8.76-11.28-.7-18.6-5.89-8.26-5.82-11.56-20.06-14.27-9.97z" opacity=".1"/><path d="M302.77 361.02c-1.56 5.84-.69 12.08-1.84 18-1.93 9.91-9.16 17.79-14 26.63a60.57 60.57 0 00-5.3 44.92c1.22 4.41 3.39 9.13 7.67 10.75 3.06 1.17 6.48.44 9.75.73 4.32.38 8.81 2.52 12.8.82 4.93-2.1 5.91-8.51 6.45-13.84a162.14 162.14 0 017.93-36.29c4-11.76 9.49-23.43 9.41-35.86-.06-8.76-3.91-18.44-11.23-23.63-8.26-5.82-18.93-2.32-21.64 7.77z" fill="#f86d70"/><path d="M371.2 306.03c6-3.36 11.91-7 18.09-10.12 9.66-4.83 20.52-8.6 28.12-16a3.17 3.17 0 015.22 1.37 295.43 295.43 0 0011.59 31.32c3.84 8.8 8.12 17.44 11 26.6 2 6.37 3.25 13 5.74 19.13 3.25 8 8.44 15.12 13.59 22.1 1.89 2.58 3.84 5.2 6.49 7 3.72 2.53 9.27 4.15 9.66 8.63-4.83 3.49-11.4 2.34-17.35 2.29s-12 1.18-17.88 2.63a107.71 107.71 0 00-20 6.68c-6.26 2.95-12 6.83-17.8 10.69l-53.17 35.67c-3.91-4.47-3.76-11-4.6-16.92a88 88 0 00-3.08-12.57l-5.3-17.85c-2.52-8.48-5-16.95-7.84-25.34-2.34-7-4.94-14.07-9.52-19.85-5.52-7-13.46-11.54-20.35-17.17-2.44-2-4.85-4.28-5.76-7.3a7.14 7.14 0 01.8-5.92c1.46-2.11 3.55-1.8 5.87-2.17q8.49-1.35 16.84-3.41a204 204 0 0032.27-10.94q8.89-3.84 17.37-8.55z" fill="#bbbdc8"/><path d="M373.38 313.43c5.27-2.92 10.39-6.12 15.78-8.82 8.44-4.22 17.9-7.5 24.53-13.93a2.76 2.76 0 014.56 1.19 257 257 0 0010.11 27.32c3.35 7.68 7.08 15.22 9.57 23.21 1.72 5.55 2.83 11.3 5 16.69 2.83 7 7.37 13.19 11.85 19.28a24.77 24.77 0 005.66 6.1c3.26 2.21 8.1 3.62 8.43 7.54-4.21 3-9.94 2-15.13 2a62.53 62.53 0 00-15.59 2.3 93.19 93.19 0 00-17.43 5.83 119.35 119.35 0 00-15.53 9.36l-46.39 31.07c-3.41-3.9-3.27-9.63-4-14.77a76.83 76.83 0 00-2.68-11l-4.63-15.57c-2.2-7.4-4.4-14.79-6.84-22.11-2-6.11-4.3-12.27-8.3-17.32-4.82-6.09-11.74-10.06-17.76-15-2.12-1.73-4.23-3.73-5-6.36a6.21 6.21 0 01.7-5.16c1.27-1.85 3.1-1.58 5.12-1.9q7.41-1.17 14.69-3a176.68 176.68 0 0028.15-9.54q7.75-3.34 15.13-7.41z" opacity=".1"/><circle cx="353.97" cy="350.14" r="4" fill="#bbbdc8"/><circle cx="396.62" cy="330.39" r="4" fill="#bbbdc8"/><circle cx="374.14" cy="393.7" r="4" fill="#bbbdc8"/><circle cx="416.79" cy="373.95" r="4" fill="#bbbdc8"/><path d="M312.29 418.84c4-1.15 8.21-2.41 11.15-5.36 2.28-2.3 3.55-5.39 5.15-8.21 3.19-5.63 8.24-10.62 14.59-11.86s13.81 2.43 15.17 8.76c.88 4.12-.84 8.31-2.55 12.17-2.56 5.78-5.45 11.84-10.73 15.33-4.62 3.05-10.51 3.72-15.05 6.89-4 2.8-6.52 7.23-10 10.68a26.43 26.43 0 01-16.94 7.55 5.73 5.73 0 01-2.85-.39 6.29 6.29 0 01-2.16-2.13c-2.94-4-5.92-8.12-7.48-12.85-5.43-16.49 9.94-17.21 21.7-20.58zM418.83 421.04c-1.35-8.06-1.53-16.85-6.51-23.33-4.17-5.41-11.1-8.15-17.92-8.61-2-.14-4.35.06-5.51 1.7a6.1 6.1 0 00-.75 3.82A46.13 46.13 0 00399 422.5c2.49 2.92 5.38 5.58 7.12 9 1.52 2.95 2.08 6.32 3.49 9.32 1.84 3.91 5 7 7.42 10.6a30.49 30.49 0 015.1 17.43c2.64-4.31 2.32-9.7 2.57-14.75.33-7.11 5.31-11 2.08-16.8s-6.78-9.21-7.95-16.26z" fill="#fbbebe"/><path d="M455.74 413.01c-2.53 6.6-3.83 13.66-6.81 20.07a11.2 11.2 0 01-3.88 5c-3.2 2-7.43.76-10.61-1.23s-6-4.73-9.47-6.05c-1.56 15.19-14.18 28.56-29.26 31 9 8.27 18.48 17.46 20.51 29.5.38 2.21.51 4.56 1.69 6.47 1.9 3.05 5.91 4.05 9.51 4 9.15-.07 17.54-4.9 25.18-10 2.58-1.7 5.19-3.52 6.91-6.08s2.46-5.81 3.11-8.91q6.63-31.51 13.25-63.05c1.2-5.71 1-16.93-7.86-15.8-6.01.88-10.41 10.25-12.27 15.08z" opacity=".1"/><path d="M457.74 413.01c-2.53 6.6-3.83 13.66-6.81 20.07a11.2 11.2 0 01-3.88 5c-3.2 2-7.43.76-10.61-1.23s-6-4.73-9.47-6.05c-1.56 15.19-14.18 28.56-29.26 31 9 8.27 18.48 17.46 20.51 29.5.38 2.21.51 4.56 1.69 6.47 1.9 3.05 5.91 4.05 9.51 4 9.15-.07 17.54-4.9 25.18-10 2.58-1.7 5.19-3.52 6.91-6.08s2.46-5.81 3.11-8.91q6.63-31.51 13.25-63.05c1.2-5.71 1-16.93-7.86-15.8-6.01.88-10.41 10.25-12.27 15.08zM311.86 452.01c-.36 1.83-2.17 2.94-3.81 3.82-3.17 1.71-6.62 3.48-10.19 3s-6.56-3.12-8.9-5.92a22.82 22.82 0 01-3-4.36c-3.61-7.13-4-37.47 10.92-27.57 6.16 4.1 2.69 11.1 3.46 17.13a17.52 17.52 0 004.09 9.7c.45.52 7.2 5.38 7.43 4.2z" fill="#f86d70"/><ellipse cx="439.5" cy="247" rx="44.5" ry="21" fill="#2f2e41"/><path d="M441.5 261c-24.08 0-43.67-9-44.46-20.3a11.34 11.34 0 00-2 6.3c0 11.6 19.92 21 44.5 21s44.5-9.4 44.5-21v-.7c-5.75 8.52-22.61 14.7-42.54 14.7z" opacity=".1"/><ellipse cx="635" cy="310" rx="110" ry="100" fill="#2f2e41"/><path d="M635 384c-55.71 0-101.75-37.66-109-86.5a92.66 92.66 0 00-1 13.5c0 55.23 49.25 100 110 100s110-44.77 110-100a92.66 92.66 0 00-1-13.5c-7.25 48.84-53.29 86.5-109 86.5z" opacity=".1"/><ellipse cx="633" cy="313.5" rx="53" ry="71.5" fill="#2f2e41"/><ellipse cx="633" cy="313.5" rx="53" ry="71.5" opacity=".1"/><path d="M608.63 349.74c-2 4.94-6 10.19-12 10.57 8 6.57 16.1 13.21 25.66 18s20.88 7.6 31.76 5.88c7.68-1.21 14.66-4.58 21.18-8.27 11.1-6.28 22-14.53 24.81-25.71a181.38 181.38 0 01-25-.47c-4.31-.37-8.72-.94-12.46-2.82a19.43 19.43 0 01-9.57-11.7c-1.49-4.72-1.46-9.69-1.19-14.58.15-2.85.26-6-1.93-8.18s-5.81-2.47-9.1-2.54a125.05 125.05 0 00-19.79 1.17 68 68 0 00-10.19 1.85c-4.34 1.32-3.93.81-2.88 4.44 3.26 11.12 5.25 21.12.7 32.36z" fill="#a0616a"/><path d="M608.63 349.74c-2 4.94-6 10.19-12 10.57 8 6.57 16.1 13.21 25.66 18s20.88 7.6 31.76 5.88c7.68-1.21 14.66-4.58 21.18-8.27 11.1-6.28 22-14.53 24.81-25.71a181.38 181.38 0 01-25-.47c-4.31-.37-8.72-.94-12.46-2.82a19.43 19.43 0 01-9.57-11.7c-1.49-4.72-1.46-9.69-1.19-14.58.15-2.85.26-6-1.93-8.18s-5.81-2.47-9.1-2.54a125.05 125.05 0 00-19.79 1.17 68 68 0 00-10.19 1.85c-4.34 1.32-3.93.81-2.88 4.44 3.26 11.12 5.25 21.12.7 32.36z" opacity=".1"/><circle cx="631.5" cy="292.5" r="47" fill="#a0616a"/><path d="M615.3 353.88c-3.07-3.68-6.23-7.44-10.32-9.94-6.7-4.11-15-4.37-22.85-4.5-8.51-.15-17.76-.07-24.49 5.14-3 2.35-5.3 5.57-7.49 8.73l-28.51 41c-1.11 1.6-2.28 3.41-2 5.34a7.84 7.84 0 002 3.69L553 442.5c1.79 2.23 3.64 4.58 4.24 7.38s-.14 5.74-1.1 8.46c-3.79 10.79-11 21-10.34 32.37.47 7.42 4.35 14.24 9.1 20 10.9 13.13 26.59 21.67 43 26.33s33.64 5.68 50.71 5.79c32.18.21 66-3.3 92.58-21.45L720.3 501.7c-4.13-3.9-8.46-8.1-9.89-13.6-1-3.7-.52-7.6-.07-11.39.84-6.93 1.68-13.91 3.92-20.51 6.23-18.39 22.24-31.48 32.92-47.69 1.34-2 2.64-4.3 2.49-6.73-.12-2.05-1.26-3.88-2.37-5.6-4.88-7.57-9.94-15.1-13.48-23.38-2.64-6.16-4.43-12.71-7.7-18.56s-8.46-11.11-15-12.34c-8.42-1.58-16.63 3.69-25.18 4.05-6.26.27-12.79-2.08-18.64.15-6.94 2.65-10 10.47-13.89 16.82-2.87 4.73-11.43 17.67-18.14 14.49-3.65-1.74-7-8-9.62-11.07z" fill="#f98a8d"/><path d="M652.74 385.67a8.06 8.06 0 00-5.22-.94 4.09 4.09 0 00-3.31 3.74l-2.89-.17a3.23 3.23 0 00-1 .05 1.611 1.611 0 00.68 3.15 9.64 9.64 0 00-3.69 2.6 5.17 5.17 0 001.4 7.14 5.6 5.6 0 007.26-1.48 2.63 2.63 0 001.4 3.09c5.42 2.93 8.18-1.05 8.92-5.66.84-5.06 1.92-8.82-3.55-11.52z" fill="#ffe9b3"/><path d="M652.74 385.67a8.06 8.06 0 00-5.22-.94 4.09 4.09 0 00-3.31 3.74l-2.89-.17a3.23 3.23 0 00-1 .05 1.611 1.611 0 00.68 3.15 9.64 9.64 0 00-3.69 2.6 5.17 5.17 0 001.4 7.14 5.6 5.6 0 007.26-1.48 2.63 2.63 0 001.4 3.09c5.42 2.93 8.18-1.05 8.92-5.66.84-5.06 1.92-8.82-3.55-11.52z" opacity=".15"/><path d="M667.5 382.27a8 8 0 00-5.22-.93 4.06 4.06 0 00-3.3 3.73l-2.89-.17a3.3 3.3 0 00-1 .05 1.66 1.66 0 00-1.13 1.91 1.64 1.64 0 001.87 1.19 9.71 9.71 0 00-3.69 2.6 5.18 5.18 0 001.4 7.14 5.61 5.61 0 007.27-1.47 2.62 2.62 0 001.39 3.08c5.43 2.94 8.18-1 8.93-5.65.77-5.02 1.87-8.78-3.63-11.48z" fill="#ffe9b3"/><path d="M679.54 383.99a8 8 0 00-5.21-.93 4.06 4.06 0 00-3.31 3.73l-2.89-.17a3.22 3.22 0 00-1 .05 1.66 1.66 0 00-1.13 1.91 1.64 1.64 0 001.87 1.19 9.56 9.56 0 00-3.69 2.6 5.17 5.17 0 001.4 7.14 5.59 5.59 0 007.26-1.47 2.62 2.62 0 001.4 3.08c5.42 2.94 8.17-1.05 8.92-5.65.78-4.97 1.84-8.78-3.62-11.48z" fill="#ffe9b3"/><path d="M679.54 383.99a8 8 0 00-5.21-.93 4.06 4.06 0 00-3.31 3.73l-2.89-.17a3.22 3.22 0 00-1 .05 1.66 1.66 0 00-1.13 1.91 1.64 1.64 0 001.87 1.19 9.56 9.56 0 00-3.69 2.6 5.17 5.17 0 001.4 7.14 5.59 5.59 0 007.26-1.47 2.62 2.62 0 001.4 3.08c5.42 2.94 8.17-1.05 8.92-5.65.78-4.97 1.84-8.78-3.62-11.48z" opacity=".15"/><path d="M709 391v107.42a2.59 2.59 0 01-2.58 2.58h-83.84a2.59 2.59 0 01-2.58-2.58V391a2.58 2.58 0 013.61-2.37q3.2 1.38 6.39 2.55 4.5 1.65 9 2.87c3 .81 6 1.48 9 2s6 .92 9 1.16 6 .34 9 .28 6-.23 9-.56 6-.82 9-1.45 6-1.37 9-2.28c2.33-.71 4.67-1.5 7-2.38 1.8-.67 3.59-1.4 5.39-2.18A2.58 2.58 0 01709 391z" fill="#bbbdc8"/><path d="M639 394.05v107h-9V391.18q4.5 1.65 9 2.87zM657 397.2V501h-9V396c3 .58 6 .96 9 1.2zM675 396.92V501h-9V397.5q4.5-.08 9-.58zM693 393.19V501h-9V395.5q4.5-.94 9-2.31z" fill="#fff"/><path d="M709 391v107.42a2.59 2.59 0 01-2.58 2.58H700V390.81c1.8-.67 3.59-1.4 5.39-2.18A2.58 2.58 0 01709 391z" opacity=".1"/><path d="M643.41 380.55a8 8 0 00-5.21-.93 4.06 4.06 0 00-3.31 3.73l-2.89-.17a3.22 3.22 0 00-1 .05 1.66 1.66 0 00-1.13 1.91 1.64 1.64 0 001.87 1.19 9.56 9.56 0 00-3.69 2.6 5.17 5.17 0 001.4 7.14 5.6 5.6 0 007.26-1.47 2.62 2.62 0 001.4 3.08c5.42 2.93 8.17-1.05 8.92-5.65.78-5.02 1.86-8.78-3.62-11.48zM658.41 363.55a8 8 0 00-5.21-.93 4.06 4.06 0 00-3.31 3.73l-2.89-.17a3.22 3.22 0 00-1 .05 1.66 1.66 0 00-1.13 1.91 1.64 1.64 0 001.87 1.19 9.56 9.56 0 00-3.69 2.6 5.17 5.17 0 001.4 7.14 5.6 5.6 0 007.26-1.47 2.62 2.62 0 001.4 3.08c5.42 2.93 8.17-1.05 8.92-5.65.78-5.02 1.86-8.78-3.62-11.48z" fill="#ffe9b3"/><path d="M668.6 386.64a8 8 0 001.93-4.94 4.06 4.06 0 00-3-4l.73-2.8a3 3 0 00.15-1 1.591 1.591 0 00-3.18.12 9.57 9.57 0 00-1.83-4.12 5.18 5.18 0 00-7.28 0 5.6 5.6 0 000 7.41 2.63 2.63 0 00-3.3.78c-3.93 4.74-.56 8.22 3.81 9.85 4.78 1.76 8.26 3.56 11.97-1.3z" fill="#ffe9b3"/><path d="M681.6 386.64a8 8 0 001.93-4.94 4.06 4.06 0 00-3-4l.73-2.8a3 3 0 00.15-1 1.591 1.591 0 00-3.18.12 9.57 9.57 0 00-1.83-4.12 5.18 5.18 0 00-7.28 0 5.6 5.6 0 000 7.41 2.63 2.63 0 00-3.3.78c-3.93 4.74-.56 8.22 3.81 9.85 4.78 1.76 8.26 3.56 11.97-1.3z" fill="#ffe9b3"/><path d="M689.74 395.19a8 8 0 001-5.21 4.07 4.07 0 00-3.7-3.35l.21-2.88a3.3 3.3 0 000-1 1.59 1.59 0 00-3.1.71 9.73 9.73 0 00-2.56-3.72 5.18 5.18 0 00-7.16 1.32 5.6 5.6 0 001.4 7.28 2.63 2.63 0 00-3.1 1.37c-3 5.39 1 8.19 5.56 9 4.95.79 8.71 1.92 11.45-3.52zM649.74 379.19a8 8 0 001-5.21 4.07 4.07 0 00-3.7-3.35l.21-2.88a3.3 3.3 0 000-1 1.59 1.59 0 00-3.1.71 9.73 9.73 0 00-2.56-3.72 5.18 5.18 0 00-7.16 1.32 5.6 5.6 0 001.4 7.28 2.63 2.63 0 00-3.1 1.37c-3 5.39 1 8.19 5.56 9 4.95.79 8.71 1.92 11.45-3.52z" fill="#ffe9b3"/><path d="M653.74 373.67a8.06 8.06 0 00-5.22-.94 4.09 4.09 0 00-3.31 3.74l-2.89-.17a3.23 3.23 0 00-1 .05 1.611 1.611 0 00.68 3.15 9.64 9.64 0 00-3.69 2.6 5.17 5.17 0 001.4 7.14 5.6 5.6 0 007.26-1.48 2.63 2.63 0 001.4 3.09c5.42 2.93 8.18-1.05 8.92-5.66.84-5.06 1.92-8.82-3.55-11.52z" fill="#ffe9b3"/><path d="M653.74 373.67a8.06 8.06 0 00-5.22-.94 4.09 4.09 0 00-3.31 3.74l-2.89-.17a3.23 3.23 0 00-1 .05 1.611 1.611 0 00.68 3.15 9.64 9.64 0 00-3.69 2.6 5.17 5.17 0 001.4 7.14 5.6 5.6 0 007.26-1.48 2.63 2.63 0 001.4 3.09c5.42 2.93 8.18-1.05 8.92-5.66.84-5.06 1.92-8.82-3.55-11.52z" opacity=".15"/><path d="M696.75 377.11a8 8 0 00-5.22-.93 4.07 4.07 0 00-3.31 3.73l-2.88-.17a3.28 3.28 0 00-1 .05 1.66 1.66 0 00-1.13 1.91 1.64 1.64 0 001.87 1.19 9.71 9.71 0 00-3.69 2.6 5.18 5.18 0 001.4 7.14 5.6 5.6 0 007.26-1.47 2.62 2.62 0 001.4 3.08c5.42 2.93 8.18-1.05 8.92-5.66.77-5.01 1.85-8.77-3.62-11.47z" fill="#ffe9b3"/><path d="M696.75 377.11a8 8 0 00-5.22-.93 4.07 4.07 0 00-3.31 3.73l-2.88-.17a3.28 3.28 0 00-1 .05 1.66 1.66 0 00-1.13 1.91 1.64 1.64 0 001.87 1.19 9.71 9.71 0 00-3.69 2.6 5.18 5.18 0 001.4 7.14 5.6 5.6 0 007.26-1.47 2.62 2.62 0 001.4 3.08c5.42 2.93 8.18-1.05 8.92-5.66.77-5.01 1.85-8.77-3.62-11.47z" opacity=".15"/><path d="M670.75 360.11a8 8 0 00-5.22-.93 4.07 4.07 0 00-3.31 3.73l-2.88-.17a3.28 3.28 0 00-1 .05 1.66 1.66 0 00-1.13 1.91 1.64 1.64 0 001.87 1.19 9.71 9.71 0 00-3.69 2.6 5.18 5.18 0 001.4 7.14 5.6 5.6 0 007.26-1.47 2.62 2.62 0 001.4 3.08c5.42 2.93 8.18-1.05 8.92-5.66.77-5.01 1.85-8.77-3.62-11.47z" fill="#ffe9b3"/><path d="M670.75 360.11a8 8 0 00-5.22-.93 4.07 4.07 0 00-3.31 3.73l-2.88-.17a3.28 3.28 0 00-1 .05 1.66 1.66 0 00-1.13 1.91 1.64 1.64 0 001.87 1.19 9.71 9.71 0 00-3.69 2.6 5.18 5.18 0 001.4 7.14 5.6 5.6 0 007.26-1.47 2.62 2.62 0 001.4 3.08c5.42 2.93 8.18-1.05 8.92-5.66.77-5.01 1.85-8.77-3.62-11.47z" opacity=".15"/><path d="M650.75 354.11a8 8 0 00-5.22-.93 4.07 4.07 0 00-3.31 3.73l-2.88-.17a3.28 3.28 0 00-1 .05 1.66 1.66 0 00-1.13 1.91 1.64 1.64 0 001.87 1.19 9.71 9.71 0 00-3.69 2.6 5.18 5.18 0 001.4 7.14 5.6 5.6 0 007.26-1.47 2.62 2.62 0 001.4 3.08c5.42 2.93 8.18-1.05 8.92-5.66.77-5.01 1.85-8.77-3.62-11.47z" fill="#ffe9b3"/><path d="M650.75 354.11a8 8 0 00-5.22-.93 4.07 4.07 0 00-3.31 3.73l-2.88-.17a3.28 3.28 0 00-1 .05 1.66 1.66 0 00-1.13 1.91 1.64 1.64 0 001.87 1.19 9.71 9.71 0 00-3.69 2.6 5.18 5.18 0 001.4 7.14 5.6 5.6 0 007.26-1.47 2.62 2.62 0 001.4 3.08c5.42 2.93 8.18-1.05 8.92-5.66.77-5.01 1.85-8.77-3.62-11.47z" opacity=".15"/><path d="M672.75 350.11a8 8 0 00-5.22-.93 4.07 4.07 0 00-3.31 3.73l-2.88-.17a3.28 3.28 0 00-1 .05 1.66 1.66 0 00-1.13 1.91 1.64 1.64 0 001.87 1.19 9.71 9.71 0 00-3.69 2.6 5.18 5.18 0 001.4 7.14 5.6 5.6 0 007.26-1.47 2.62 2.62 0 001.4 3.08c5.42 2.93 8.18-1.05 8.92-5.66.77-5.01 1.85-8.77-3.62-11.47z" fill="#ffe9b3"/><path d="M672.75 350.11a8 8 0 00-5.22-.93 4.07 4.07 0 00-3.31 3.73l-2.88-.17a3.28 3.28 0 00-1 .05 1.66 1.66 0 00-1.13 1.91 1.64 1.64 0 001.87 1.19 9.71 9.71 0 00-3.69 2.6 5.18 5.18 0 001.4 7.14 5.6 5.6 0 007.26-1.47 2.62 2.62 0 001.4 3.08c5.42 2.93 8.18-1.05 8.92-5.66.77-5.01 1.85-8.77-3.62-11.47z" opacity=".15"/><path d="M680.75 356.11a8 8 0 00-5.22-.93 4.07 4.07 0 00-3.31 3.73l-2.88-.17a3.28 3.28 0 00-1 .05 1.66 1.66 0 00-1.13 1.91 1.64 1.64 0 001.87 1.19 9.71 9.71 0 00-3.69 2.6 5.18 5.18 0 001.4 7.14 5.6 5.6 0 007.26-1.47 2.62 2.62 0 001.4 3.08c5.42 2.93 8.18-1.05 8.92-5.66.77-5.01 1.85-8.77-3.62-11.47z" fill="#ffe9b3"/><path d="M680.75 356.11a8 8 0 00-5.22-.93 4.07 4.07 0 00-3.31 3.73l-2.88-.17a3.28 3.28 0 00-1 .05 1.66 1.66 0 00-1.13 1.91 1.64 1.64 0 001.87 1.19 9.71 9.71 0 00-3.69 2.6 5.18 5.18 0 001.4 7.14 5.6 5.6 0 007.26-1.47 2.62 2.62 0 001.4 3.08c5.42 2.93 8.18-1.05 8.92-5.66.77-5.01 1.85-8.77-3.62-11.47z" opacity=".15"/><path d="M631.75 377.11a8 8 0 00-5.22-.93 4.07 4.07 0 00-3.31 3.73l-2.88-.17a3.28 3.28 0 00-1 .05 1.66 1.66 0 00-1.13 1.91 1.64 1.64 0 001.87 1.19 9.71 9.71 0 00-3.69 2.6 5.18 5.18 0 001.4 7.14 5.6 5.6 0 007.26-1.47 2.62 2.62 0 001.4 3.08c5.42 2.93 8.18-1.05 8.92-5.66.77-5.01 1.85-8.77-3.62-11.47z" fill="#ffe9b3"/><path d="M631.75 377.11a8 8 0 00-5.22-.93 4.07 4.07 0 00-3.31 3.73l-2.88-.17a3.28 3.28 0 00-1 .05 1.66 1.66 0 00-1.13 1.91 1.64 1.64 0 001.87 1.19 9.71 9.71 0 00-3.69 2.6 5.18 5.18 0 001.4 7.14 5.6 5.6 0 007.26-1.47 2.62 2.62 0 001.4 3.08c5.42 2.93 8.18-1.05 8.92-5.66.77-5.01 1.85-8.77-3.62-11.47z" opacity=".15"/><path d="M689.75 363.11a8 8 0 00-5.22-.93 4.07 4.07 0 00-3.31 3.73l-2.88-.17a3.28 3.28 0 00-1 .05 1.66 1.66 0 00-1.13 1.91 1.64 1.64 0 001.87 1.19 9.71 9.71 0 00-3.69 2.6 5.18 5.18 0 001.4 7.14 5.6 5.6 0 007.26-1.47 2.62 2.62 0 001.4 3.08c5.42 2.93 8.18-1.05 8.92-5.66.77-5.01 1.85-8.77-3.62-11.47z" fill="#ffe9b3"/><path d="M689.75 363.11a8 8 0 00-5.22-.93 4.07 4.07 0 00-3.31 3.73l-2.88-.17a3.28 3.28 0 00-1 .05 1.66 1.66 0 00-1.13 1.91 1.64 1.64 0 001.87 1.19 9.71 9.71 0 00-3.69 2.6 5.18 5.18 0 001.4 7.14 5.6 5.6 0 007.26-1.47 2.62 2.62 0 001.4 3.08c5.42 2.93 8.18-1.05 8.92-5.66.77-5.01 1.85-8.77-3.62-11.47z" opacity=".15"/><path d="M708.75 373.11a8 8 0 00-5.22-.93 4.07 4.07 0 00-3.31 3.73l-2.88-.17a3.28 3.28 0 00-1 .05 1.66 1.66 0 00-1.13 1.91 1.64 1.64 0 001.87 1.19 9.71 9.71 0 00-3.69 2.6 5.18 5.18 0 001.4 7.14 5.6 5.6 0 007.26-1.47 2.62 2.62 0 001.4 3.08c5.42 2.93 8.18-1.05 8.92-5.66.77-5.01 1.85-8.77-3.62-11.47z" fill="#ffe9b3"/><path d="M708.75 373.11a8 8 0 00-5.22-.93 4.07 4.07 0 00-3.31 3.73l-2.88-.17a3.28 3.28 0 00-1 .05 1.66 1.66 0 00-1.13 1.91 1.64 1.64 0 001.87 1.19 9.71 9.71 0 00-3.69 2.6 5.18 5.18 0 001.4 7.14 5.6 5.6 0 007.26-1.47 2.62 2.62 0 001.4 3.08c5.42 2.93 8.18-1.05 8.92-5.66.77-5.01 1.85-8.77-3.62-11.47z" opacity=".15"/><path d="M692.75 351.11a8 8 0 00-5.22-.93 4.07 4.07 0 00-3.31 3.73l-2.88-.17a3.28 3.28 0 00-1 .05 1.66 1.66 0 00-1.13 1.91 1.64 1.64 0 001.87 1.19 9.71 9.71 0 00-3.69 2.6 5.18 5.18 0 001.4 7.14 5.6 5.6 0 007.26-1.47 2.62 2.62 0 001.4 3.08c5.42 2.93 8.18-1.05 8.92-5.66.77-5.01 1.85-8.77-3.62-11.47z" fill="#ffe9b3"/><path d="M692.75 351.11a8 8 0 00-5.22-.93 4.07 4.07 0 00-3.31 3.73l-2.88-.17a3.28 3.28 0 00-1 .05 1.66 1.66 0 00-1.13 1.91 1.64 1.64 0 001.87 1.19 9.71 9.71 0 00-3.69 2.6 5.18 5.18 0 001.4 7.14 5.6 5.6 0 007.26-1.47 2.62 2.62 0 001.4 3.08c5.42 2.93 8.18-1.05 8.92-5.66.77-5.01 1.85-8.77-3.62-11.47z" opacity=".15"/><path d="M706.74 375.19a8 8 0 001-5.21 4.07 4.07 0 00-3.7-3.35l.21-2.88a3.3 3.3 0 000-1 1.59 1.59 0 00-3.1.71 9.73 9.73 0 00-2.56-3.72 5.18 5.18 0 00-7.16 1.32 5.6 5.6 0 001.4 7.28 2.63 2.63 0 00-3.1 1.37c-3 5.39 1 8.19 5.56 9 4.95.79 8.71 1.92 11.45-3.52z" fill="#ffe9b3"/><path d="M706.74 359.19a8 8 0 001-5.21 4.07 4.07 0 00-3.7-3.35l.21-2.88a3.3 3.3 0 000-1 1.59 1.59 0 00-3.1.71 9.73 9.73 0 00-2.56-3.72 5.18 5.18 0 00-7.16 1.32 5.6 5.6 0 001.4 7.28 2.63 2.63 0 00-3.1 1.37c-3 5.39 1 8.19 5.56 9 4.95.79 8.71 1.92 11.45-3.52zM689.74 380.19a8 8 0 001-5.21 4.07 4.07 0 00-3.7-3.35l.21-2.88a3.3 3.3 0 000-1 1.59 1.59 0 00-3.1.71 9.73 9.73 0 00-2.56-3.72 5.18 5.18 0 00-7.16 1.32 5.6 5.6 0 001.4 7.28 2.63 2.63 0 00-3.1 1.37c-3 5.39 1 8.19 5.56 9 4.95.79 8.71 1.92 11.45-3.52zM708.74 398.19a8 8 0 001-5.21 4.07 4.07 0 00-3.7-3.35l.21-2.88a3.3 3.3 0 000-1 1.59 1.59 0 00-3.1.71 9.73 9.73 0 00-2.56-3.72 5.18 5.18 0 00-7.16 1.32 5.6 5.6 0 001.4 7.28 2.63 2.63 0 00-3.1 1.37c-3 5.39 1 8.19 5.56 9 4.95.79 8.71 1.92 11.45-3.52zM672.74 405.19a8 8 0 001-5.21 4.07 4.07 0 00-3.7-3.35l.21-2.88a3.3 3.3 0 000-1 1.59 1.59 0 00-3.1.71 9.73 9.73 0 00-2.56-3.72 5.18 5.18 0 00-7.16 1.32 5.6 5.6 0 001.4 7.28 2.63 2.63 0 00-3.1 1.37c-3 5.39 1 8.19 5.56 9 4.95.79 8.71 1.92 11.45-3.52zM664.74 364.19a8 8 0 001-5.21 4.07 4.07 0 00-3.7-3.35l.21-2.88a3.3 3.3 0 000-1 1.59 1.59 0 00-3.1.71 9.73 9.73 0 00-2.56-3.72 5.18 5.18 0 00-7.16 1.32 5.6 5.6 0 001.4 7.28 2.63 2.63 0 00-3.1 1.37c-3 5.39 1 8.19 5.56 9 4.95.79 8.71 1.92 11.45-3.52zM685.74 359.19a8 8 0 001-5.21 4.07 4.07 0 00-3.7-3.35l.21-2.88a3.3 3.3 0 000-1 1.59 1.59 0 00-3.1.71 9.73 9.73 0 00-2.56-3.72 5.18 5.18 0 00-7.16 1.32 5.6 5.6 0 001.4 7.28 2.63 2.63 0 00-3.1 1.37c-3 5.39 1 8.19 5.56 9 4.95.79 8.71 1.92 11.45-3.52zM643.74 378.19a8 8 0 001-5.21 4.07 4.07 0 00-3.7-3.35l.21-2.88a3.3 3.3 0 000-1 1.59 1.59 0 00-3.1.71 9.73 9.73 0 00-2.56-3.72 5.18 5.18 0 00-7.16 1.32 5.6 5.6 0 001.4 7.28 2.63 2.63 0 00-3.1 1.37c-3 5.39 1 8.19 5.56 9 4.95.79 8.71 1.92 11.45-3.52z" fill="#ffe9b3"/><path d="M627.81 424.06c5.2-.42 10.33-1.75 15.55-1.68 6.83.09 13.4 2.56 19.62 5.38a15.47 15.47 0 014.94 3.08 10.43 10.43 0 012.38 8.72 22.58 22.58 0 01-3.58 8.58c-1.82 2.89-4.07 5.74-7.24 7a17.38 17.38 0 01-5.51.95c-7.83.43-15.81 0-23.24-2.51-3.81-1.3-7.42-3.12-11.15-4.66-11.89-4.92-24.75-6.86-37.38-9.34a3.84 3.84 0 01-1.78-.69c-2.63-2.27 3.08-10.45 4.42-12.74 2.26-3.89 4.31-4.31 8.89-4.42 11.44-.29 22.61 3.04 34.08 2.33zM716.78 451.73c-3.62-1.78-6.87-4.24-10.46-6.09a35.26 35.26 0 00-14.57-3.87c-3.29-.15-6.87.29-9.26 2.56-3.41 3.24-3 8.75-1.88 13.32 1.7 6.85 5.12 14.1 11.69 16.69a26.59 26.59 0 008 1.37c12.17.84 24.84 1.6 36.12-3a3.66 3.66 0 002-1.53c.49-1 0-2.2-.5-3.21-1.8-3.62-4.65-11.21-8.13-13.47-3.24-2.17-8.97-.79-13.01-2.77z" fill="#a0616a"/><path d="M745.38 397.27a170.08 170.08 0 0116.34 33.63 27.8 27.8 0 012 9.09c0 3.47-1.21 6.83-2.48 10.11a271 271 0 01-14.06 30.64c-1.6 3-3.43 6.13-6.6 7.78-3.33 1.74-7.43 1.47-11.24 1A217.14 217.14 0 01701 484.5c5.87.19 11.17-4.21 13.88-9s3.31-10.27 3.76-15.62a23.71 23.71 0 00-.36-8.65 9.4 9.4 0 00-5.82-6.45c-.27-2.61 2.22-4.8 4.79-6s5.49-1.87 7.58-3.67c3.08-2.64 3.52-7.05 2.51-10.79s-3.21-7.12-4.77-10.71c-2.19-5 9.11-10.26 9.56-15.66.1-1.22-.76 1 0 0s5.48 2.47 6.55 2c7.03-3.04 2.81-8.86 6.7-2.68z" opacity=".1"/><path d="M747.56 397.27a170.68 170.68 0 0116.35 33.63 27.53 27.53 0 012 9.09c0 3.47-1.21 6.83-2.47 10.11a272.79 272.79 0 01-14.06 30.64c-1.6 3-3.43 6.13-6.6 7.78-3.33 1.74-7.44 1.47-11.24 1a216.55 216.55 0 01-28.35-5.02c5.86.19 11.17-4.21 13.87-9s3.32-10.27 3.77-15.62a23.93 23.93 0 00-.36-8.65 9.44 9.44 0 00-5.82-6.45c-.28-2.61 2.22-4.8 4.79-6s5.49-1.87 7.58-3.67c3.07-2.64 3.51-7.05 2.5-10.79s-3.21-7.12-4.77-10.71a33.21 33.21 0 01-2.66-15.92 6.72 6.72 0 011.06-3.51 6.86 6.86 0 012.79-2c7.06-3 17.73-1.09 21.62 5.09z" fill="#f98a8d"/><path d="M533.8 387.35c-6.49 6-13.19 12.34-16.35 20.61-1.72 4.51-2.29 9.37-2.85 14.17-.94 8.18-1.79 16.94 2 24.24 4.2 8 13 12.29 21.26 15.92a59 59 0 008.85 3.32 62.17 62.17 0 0012.1 1.48l41.69 2.32c-5.44-5.48-8.92-14.06-8.18-21.75.67-6.87 4-13.17 7.35-19.18 1.74-3.1 3.71-6.36 6.92-7.89a134.53 134.53 0 00-41.4-2.6c-.93.08-2 .11-2.61-.63a2.5 2.5 0 01-.4-1.57c0-6.21 4.64-11.37 6.56-17.27 3.07-9.46-7.38-4.27-16.78-7.52s-16.24-13.41-18.16-3.65z" opacity=".1"/><path d="M530.8 387.35c-6.49 6-13.19 12.34-16.35 20.61-1.72 4.51-2.29 9.37-2.85 14.17-.94 8.18-1.79 16.94 2 24.24 4.2 8 13 12.29 21.26 15.92a59 59 0 008.85 3.32 62.17 62.17 0 0012.1 1.48l41.69 2.32c-5.44-5.48-8.92-14.06-8.18-21.75.67-6.87 4-13.17 7.35-19.18 1.74-3.1 3.71-6.36 6.92-7.89a134.53 134.53 0 00-41.4-2.6c-.93.08-2 .11-2.61-.63a2.5 2.5 0 01-.4-1.57c0-6.21 4.64-11.37 6.56-17.27 3.07-9.46-2.27-21-11.68-24.27s-21.34 3.34-23.26 13.1z" fill="#f98a8d"/><ellipse cx="635.5" cy="259" rx="50.5" ry="21" fill="#2f2e41"/><path d="M634.5 271c-24.17 0-44.37-7.07-49.33-16.5A9.61 9.61 0 00584 259c0 11.6 22.61 21 50.5 21s50.5-9.4 50.5-21a9.61 9.61 0 00-1.17-4.5c-4.96 9.43-25.16 16.5-49.33 16.5z" opacity=".1"/><path d="M702.75 273.11a8 8 0 00-5.22-.93 4.07 4.07 0 00-3.31 3.73l-2.88-.17a3.28 3.28 0 00-1 .05 1.66 1.66 0 00-1.13 1.91 1.64 1.64 0 001.87 1.19 9.71 9.71 0 00-3.69 2.6 5.18 5.18 0 001.4 7.14 5.6 5.6 0 007.26-1.47 2.62 2.62 0 001.4 3.08c5.42 2.93 8.18-1.05 8.92-5.66.77-5.01 1.85-8.77-3.62-11.47z" fill="#ffe9b3"/><path d="M702.75 273.11a8 8 0 00-5.22-.93 4.07 4.07 0 00-3.31 3.73l-2.88-.17a3.28 3.28 0 00-1 .05 1.66 1.66 0 00-1.13 1.91 1.64 1.64 0 001.87 1.19 9.71 9.71 0 00-3.69 2.6 5.18 5.18 0 001.4 7.14 5.6 5.6 0 007.26-1.47 2.62 2.62 0 001.4 3.08c5.42 2.93 8.18-1.05 8.92-5.66.77-5.01 1.85-8.77-3.62-11.47z" opacity=".15"/><path d="M750.75 349.11a8 8 0 00-5.22-.93 4.07 4.07 0 00-3.31 3.73l-2.88-.17a3.28 3.28 0 00-1 .05 1.66 1.66 0 00-1.13 1.91 1.64 1.64 0 001.87 1.19 9.71 9.71 0 00-3.69 2.6 5.18 5.18 0 001.4 7.14 5.6 5.6 0 007.26-1.47 2.62 2.62 0 001.4 3.08c5.42 2.93 8.18-1.05 8.92-5.66.77-5.01 1.85-8.77-3.62-11.47z" fill="#ffe9b3"/><path d="M750.75 349.11a8 8 0 00-5.22-.93 4.07 4.07 0 00-3.31 3.73l-2.88-.17a3.28 3.28 0 00-1 .05 1.66 1.66 0 00-1.13 1.91 1.64 1.64 0 001.87 1.19 9.71 9.71 0 00-3.69 2.6 5.18 5.18 0 001.4 7.14 5.6 5.6 0 007.26-1.47 2.62 2.62 0 001.4 3.08c5.42 2.93 8.18-1.05 8.92-5.66.77-5.01 1.85-8.77-3.62-11.47z" opacity=".15"/><path d="M806.75 430.11a8 8 0 00-5.22-.93 4.07 4.07 0 00-3.31 3.73l-2.88-.17a3.28 3.28 0 00-1 .05 1.66 1.66 0 00-1.13 1.91 1.64 1.64 0 001.87 1.19 9.71 9.71 0 00-3.69 2.6 5.18 5.18 0 001.4 7.14 5.6 5.6 0 007.26-1.47 2.62 2.62 0 001.4 3.08c5.42 2.93 8.18-1.05 8.92-5.66.77-5.01 1.85-8.77-3.62-11.47z" fill="#ffe9b3"/><path d="M806.75 430.11a8 8 0 00-5.22-.93 4.07 4.07 0 00-3.31 3.73l-2.88-.17a3.28 3.28 0 00-1 .05 1.66 1.66 0 00-1.13 1.91 1.64 1.64 0 001.87 1.19 9.71 9.71 0 00-3.69 2.6 5.18 5.18 0 001.4 7.14 5.6 5.6 0 007.26-1.47 2.62 2.62 0 001.4 3.08c5.42 2.93 8.18-1.05 8.92-5.66.77-5.01 1.85-8.77-3.62-11.47z" opacity=".15"/><path d="M720.74 251.19a8 8 0 001-5.21 4.07 4.07 0 00-3.7-3.35l.21-2.88a3.3 3.3 0 000-1 1.59 1.59 0 00-3.1.71 9.73 9.73 0 00-2.56-3.72 5.18 5.18 0 00-7.16 1.32 5.6 5.6 0 001.4 7.28 2.63 2.63 0 00-3.1 1.37c-3 5.39 1 8.19 5.56 9 4.95.79 8.71 1.92 11.45-3.52zM714.74 216.19a8 8 0 001-5.21 4.07 4.07 0 00-3.7-3.35l.21-2.88a3.3 3.3 0 000-1 1.59 1.59 0 00-3.1.71 9.73 9.73 0 00-2.56-3.72 5.18 5.18 0 00-7.16 1.32 5.6 5.6 0 001.4 7.28 2.63 2.63 0 00-3.1 1.37c-3 5.39 1 8.19 5.56 9 4.95.79 8.71 1.92 11.45-3.52zM564.75 504.11a8 8 0 00-5.22-.93 4.07 4.07 0 00-3.31 3.73l-2.88-.17a3.28 3.28 0 00-1 0 1.66 1.66 0 00-1.13 1.91 1.64 1.64 0 001.87 1.19 9.71 9.71 0 00-3.69 2.6 5.18 5.18 0 001.4 7.14 5.6 5.6 0 007.26-1.47 2.62 2.62 0 001.4 3.08c5.42 2.93 8.18-1 8.92-5.66.77-4.96 1.85-8.72-3.62-11.42z" fill="#ffe9b3"/><path d="M564.75 504.11a8 8 0 00-5.22-.93 4.07 4.07 0 00-3.31 3.73l-2.88-.17a3.28 3.28 0 00-1 0 1.66 1.66 0 00-1.13 1.91 1.64 1.64 0 001.87 1.19 9.71 9.71 0 00-3.69 2.6 5.18 5.18 0 001.4 7.14 5.6 5.6 0 007.26-1.47 2.62 2.62 0 001.4 3.08c5.42 2.93 8.18-1 8.92-5.66.77-4.96 1.85-8.72-3.62-11.42z" opacity=".15"/><path d="M528.74 502.19a8 8 0 001-5.21 4.07 4.07 0 00-3.7-3.35l.21-2.88a3.3 3.3 0 000-1 1.59 1.59 0 00-3.1.71 9.73 9.73 0 00-2.56-3.72 5.18 5.18 0 00-7.16 1.32 5.6 5.6 0 001.4 7.28 2.63 2.63 0 00-3.1 1.37c-3 5.39 1 8.19 5.56 9 4.95.79 8.71 1.92 11.45-3.52zM576.74 447.19a8 8 0 001-5.21 4.07 4.07 0 00-3.7-3.35l.21-2.88a3.3 3.3 0 000-1 1.59 1.59 0 00-3.1.71 9.73 9.73 0 00-2.56-3.72 5.18 5.18 0 00-7.16 1.32 5.6 5.6 0 001.4 7.28 2.63 2.63 0 00-3.1 1.37c-3 5.39 1 8.19 5.56 9 4.95.79 8.71 1.92 11.45-3.52z" fill="#ffe9b3"/><path d="M499.91 465.35c-9.74-2.49-19.88-5-29.72-3-4.38.89-8.52 2.65-12.78 4a73.11 73.11 0 01-62.74-9.37c-10.2-7.05-20.8-17.33-32.88-14.54-3.25.76-6.26 2.46-9.58 2.83-6.23.71-12-3.33-18.18-4.28-10.64-1.63-20.31 5.83-28.49 12.83l-43.13 36.91c-3.27 2.8-6.87 6.5-6 10.7 1.33 6.17 10.78 7 13.21 12.85 1.76 4.19-1.15 9.07-5 11.46s-8.51 3-12.83 4.45a39.9 39.9 0 00-26.28 29.2c-.76 3.58-1 7.3-2.41 10.68-1.52 3.68-4.27 6.7-6.3 10.12-8.88 14.9-3.05 34.67-9.79 50.65-3.57 8.48-10.72 16.68-8.46 25.59 2.06 8.08 10.93 12.21 19 14.35.95 5.5-1 9.38-5 13.33 33.55 13.79 69.56 27.87 105.15 20.82 12.21-2.41 24.1-7.3 36.54-7.1 8.83.14 17.56 2.86 26.37 2.24 18.59-1.31 35.66-17.2 53.67-12.43-5.43.37-7.44 8.31-4.24 12.72s9.09 5.82 14.51 6.34 11.16.56 15.86 3.32c-3.56 7.41-16.31 10-15.08 18.15.45 2.94 2.83 5.17 5.19 7 24.25 18.57 57.65 16.79 88 20 22.38 2.34 44.32 7.81 66.63 10.73 35.64 4.65 71.77 2.75 107.65.83 6.51-.35 13.81-1.07 18-6.07 5.56-6.66 2.47-16.53 1.77-25.17-2.72-33.81 34.26-57.08 44.62-89.38 4-12.61 3.83-26.16 3.11-39.39-1.61-29.84-6.28-61.32-25.3-84.36-15.66-19-39.07-29.7-62.38-37.54-14.84-5-30.39-9.11-46-7.64-26.2 2.47-52.67 20.36-76.86 10-6.4-2.74-11.85-7.27-17.93-10.65-15.98-9.03-34.11-6.63-51.92-11.18z" fill="#546e7a"/><g opacity=".1"><path d="M635.21 739.86c-22.31-2.92-44.21-8.36-66.63-10.73-30.38-3.18-63.78-1.4-88-20-2.36-1.81-4.74-4-5.19-7-1.23-8.13 11.52-10.74 15.08-18.15-4.7-2.76-10.43-2.79-15.86-3.32s-11.31-1.93-14.51-6.34-1.19-12.35 4.24-12.72c-18-4.77-35.08 11.12-53.67 12.43-8.81.62-17.54-2.1-26.37-2.24-12.44-.2-24.33 4.69-36.54 7.1-35.59 7-71.59-7-105.15-20.82 3.95-4 5.92-7.83 5-13.33-8.05-2.14-16.92-6.27-19-14.35-2.26-8.91 4.89-17.11 8.46-25.59 6.74-16 .91-35.75 9.79-50.65 2-3.42 4.78-6.44 6.3-10.12 1.39-3.38 1.65-7.1 2.41-10.68a35.2 35.2 0 011.3-4.62c-1.68.46-3.38.88-5 1.42a39.9 39.9 0 00-26.28 29.2c-.76 3.58-1 7.3-2.41 10.68-1.52 3.68-4.27 6.7-6.3 10.12-8.88 14.9-3.05 34.67-9.79 50.65-3.57 8.48-10.72 16.68-8.46 25.59 2.06 8.08 10.93 12.21 19 14.35.95 5.5-1 9.38-5 13.33 33.56 13.79 69.56 27.87 105.15 20.82 12.21-2.41 24.1-7.3 36.54-7.1 8.83.14 17.56 2.86 26.37 2.24 18.59-1.31 35.66-17.2 53.67-12.43-5.43.37-7.44 8.31-4.24 12.72s9.09 5.82 14.51 6.34 11.16.56 15.86 3.32c-3.56 7.41-16.31 10-15.08 18.15.45 2.94 2.83 5.17 5.19 7 24.25 18.57 57.65 16.79 88 20 22.38 2.34 44.32 7.81 66.63 10.73 35.64 4.65 71.77 2.75 107.65.83 6.51-.35 13.81-1.07 18-6.07 4.35-5.22 3.4-12.4 2.45-19.43-32.76 1.7-65.65 2.91-98.12-1.33zM268.18 512.04a38.57 38.57 0 0113.63-7.84c4.32-1.4 9-2.07 12.83-4.45s6.77-7.27 5-11.46c-2.43-5.81-11.88-6.68-13.21-12.85-.61-2.84.84-5.45 2.86-7.71l-26.89 23c-3.27 2.8-6.87 6.5-6 10.7 1.17 5.28 8.23 6.69 11.78 10.61z"/></g><path d="M358.74 492.19a8 8 0 001-5.21 4.07 4.07 0 00-3.7-3.35l.21-2.88a3.3 3.3 0 00-.05-1 1.59 1.59 0 00-3.1.71 9.73 9.73 0 00-2.56-3.72 5.18 5.18 0 00-7.16 1.32 5.6 5.6 0 001.4 7.28 2.63 2.63 0 00-3.1 1.37c-3 5.39 1 8.19 5.56 9 5 .79 8.76 1.92 11.5-3.52zM504.74 686.19a8 8 0 001-5.21 4.07 4.07 0 00-3.7-3.35l.21-2.88a3.3 3.3 0 000-1 1.59 1.59 0 00-3.1.71 9.73 9.73 0 00-2.56-3.72 5.18 5.18 0 00-7.16 1.32 5.6 5.6 0 001.4 7.28 2.63 2.63 0 00-3.1 1.37c-3 5.39 1 8.19 5.56 9 4.95.79 8.71 1.92 11.45-3.52zM604.74 495.19a8 8 0 001-5.21 4.07 4.07 0 00-3.7-3.35l.21-2.88a3.3 3.3 0 000-1 1.59 1.59 0 00-3.1.71 9.73 9.73 0 00-2.56-3.72 5.18 5.18 0 00-7.16 1.32 5.6 5.6 0 001.4 7.28 2.63 2.63 0 00-3.1 1.37c-3 5.39 1 8.19 5.56 9 4.95.79 8.71 1.92 11.45-3.52zM623.55 492.99a8 8 0 003.86-3.63 4.06 4.06 0 00-1-4.88l1.85-2.22a3.26 3.26 0 00.58-.86 1.593 1.593 0 00-2.93-1.25 9.71 9.71 0 00.11-4.51 5.18 5.18 0 00-6.58-3.13 5.59 5.59 0 00-3.13 6.71 2.64 2.64 0 00-3.31-.72c-5.58 2.61-4 7.19-.76 10.53 3.5 3.65 5.88 6.76 11.31 3.96zM406.75 498.11a8 8 0 00-5.22-.93 4.07 4.07 0 00-3.31 3.73l-2.88-.17a3.28 3.28 0 00-1 0 1.66 1.66 0 00-1.13 1.91 1.64 1.64 0 001.87 1.19 9.71 9.71 0 00-3.69 2.6 5.18 5.18 0 001.4 7.14 5.6 5.6 0 007.26-1.47 2.62 2.62 0 001.4 3.08c5.42 2.93 8.18-1 8.92-5.66.77-4.96 1.85-8.72-3.62-11.42z" fill="#ffe9b3"/><path d="M406.75 498.11a8 8 0 00-5.22-.93 4.07 4.07 0 00-3.31 3.73l-2.88-.17a3.28 3.28 0 00-1 0 1.66 1.66 0 00-1.13 1.91 1.64 1.64 0 001.87 1.19 9.71 9.71 0 00-3.69 2.6 5.18 5.18 0 001.4 7.14 5.6 5.6 0 007.26-1.47 2.62 2.62 0 001.4 3.08c5.42 2.93 8.18-1 8.92-5.66.77-4.96 1.85-8.72-3.62-11.42z" opacity=".15"/><path d="M495.79 572.5a8.11 8.11 0 00-.86-5.23 4.06 4.06 0 00-4.63-1.87l-.8-2.78a3.37 3.37 0 00-.4-1 1.593 1.593 0 00-2.67 1.74 9.66 9.66 0 00-3.68-2.62 5.19 5.19 0 00-6.27 3.71 5.6 5.6 0 003.82 6.35 2.63 2.63 0 00-2.44 2.35c-1 6.09 3.72 7.36 8.31 6.52 5-.91 8.9-1.17 9.62-7.17z" fill="#ffe9b3"/><path d="M495.79 572.5a8.11 8.11 0 00-.86-5.23 4.06 4.06 0 00-4.63-1.87l-.8-2.78a3.37 3.37 0 00-.4-1 1.593 1.593 0 00-2.67 1.74 9.66 9.66 0 00-3.68-2.62 5.19 5.19 0 00-6.27 3.71 5.6 5.6 0 003.82 6.35 2.63 2.63 0 00-2.44 2.35c-1 6.09 3.72 7.36 8.31 6.52 5-.91 8.9-1.17 9.62-7.17z" opacity=".15"/><path d="M615.79 481.5a8.11 8.11 0 00-.86-5.23 4.06 4.06 0 00-4.63-1.87l-.8-2.78a3.37 3.37 0 00-.4-1 1.593 1.593 0 00-2.67 1.74 9.66 9.66 0 00-3.68-2.62 5.19 5.19 0 00-6.27 3.71 5.6 5.6 0 003.82 6.35 2.63 2.63 0 00-2.44 2.35c-1 6.09 3.72 7.36 8.31 6.52 5-.91 8.9-1.17 9.62-7.17z" fill="#ffe9b3"/><path d="M615.79 481.5a8.11 8.11 0 00-.86-5.23 4.06 4.06 0 00-4.63-1.87l-.8-2.78a3.37 3.37 0 00-.4-1 1.593 1.593 0 00-2.67 1.74 9.66 9.66 0 00-3.68-2.62 5.19 5.19 0 00-6.27 3.71 5.6 5.6 0 003.82 6.35 2.63 2.63 0 00-2.44 2.35c-1 6.09 3.72 7.36 8.31 6.52 5-.91 8.9-1.17 9.62-7.17z" opacity=".15"/></svg>