<svg id="Layer_1" version="1.1" viewBox="0 0 512 512" xml:space="preserve" xmlns="http://www.w3.org/2000/svg"><style>.st0{fill:#efa21b}</style><g id="XMLID_186_"><path class="st0" d="M431.1 273.3c-.5 0-1 .1-1.3.4-.3.3-.4.6-.4 1 0 .5.1.9.4 1.2.3.3.7.4 1.3.4.6 0 1-.1 1.3-.4.3-.3.5-.7.5-1.2 0-.4-.2-.8-.5-1-.2-.2-.7-.4-1.3-.4z" id="XMLID_326_"/><path class="st0" d="M439.2 235.5c-.5-.3-1.2-.5-2.2-.5h-4.6c-1 0-1.7.2-2.2.5-.5.3-.7.8-.7 1.3 0 .6.3 1 .7 1.3.5.3 1.2.5 2.2.5h4.6c1 0 1.7-.2 2.2-.5.5-.3.7-.8.7-1.4 0-.5-.2-.9-.7-1.2z" id="XMLID_325_"/><path class="st0" d="M439.2 298.9c-.5-.3-1.1-.5-1.8-.5-.8 0-1.4.2-1.8.5-.4.3-.7.8-.7 1.3s.1 1 .2 1.3c.1.4.3.7.6.9h.7c1.1 0 2-.2 2.6-.6.6-.4.9-.9.9-1.6 0-.6-.2-1-.7-1.3z" id="XMLID_324_"/><path class="st0" d="M439.2 248.2c-.5-.3-1.2-.5-2.2-.5h-4.6c-1 0-1.7.2-2.2.5-.5.3-.7.8-.7 1.3 0 .6.3 1 .7 1.3.5.3 1.2.5 2.2.5h4.6c1 0 1.7-.2 2.2-.5.5-.3.7-.8.7-1.4 0-.5-.2-.9-.7-1.2z" id="XMLID_323_"/><path class="st0" id="XMLID_322_" d="M431.5 312.6l.8.4 4.1 2.8v-3.3h-4.9z"/><path class="st0" d="M437.9 272.8c-.6 0-1.1.2-1.5.6-.4.4-.6.8-.6 1.4 0 .6.2 1.1.6 1.5.4.4.9.6 1.5.6s1.1-.2 1.5-.6c.4-.4.6-.9.6-1.6 0-.6-.2-1-.5-1.4-.5-.3-1-.5-1.6-.5z" id="XMLID_321_"/><path class="st0" d="M433.9 260.5h-1.7c-.9 0-1.6.2-2 .5-.5.3-.7.8-.7 1.3 0 .6.3 1 .8 1.3.5.3 1.2.5 1.9.5.8 0 1.4-.1 1.9-.4.5-.3.7-.7.7-1.3 0-.4-.1-.8-.2-1.1-.2-.4-.4-.6-.7-.8z" id="XMLID_320_"/><path class="st0" d="M439.2 159.2c-.5-.3-1.2-.5-2.2-.5h-4.6c-1 0-1.7.2-2.2.5-.5.3-.7.8-.7 1.3 0 .6.3 1 .7 1.3.5.3 1.2.5 2.2.5h4.6c1 0 1.7-.2 2.2-.5.5-.3.7-.8.7-1.4 0-.4-.2-.9-.7-1.2z" id="XMLID_319_"/><path class="st0" d="M196.9 309c-.6 0-1.1.2-1.5.6-.4.4-.6.9-.6 1.5s.2 1.1.6 1.5c.4.4.9.6 1.6.6.6 0 1-.2 1.4-.5.4-.4.6-.9.6-1.5s-.2-1.1-.6-1.5c-.5-.5-.9-.7-1.5-.7z" id="XMLID_318_"/><path class="st0" id="XMLID_317_" d="M158.7 305.5l-2.8 4.1h3.3v-4.9h-.1z"/><path class="st0" d="M171.5 308.2c-.5 0-1 .1-1.3.2-.4.1-.7.3-.9.6v.7c0 1.1.2 2 .6 2.6.4.6.9.9 1.6.9.5 0 1-.2 1.3-.7.3-.5.5-1.1.5-1.8 0-.8-.2-1.4-.5-1.8-.3-.5-.7-.7-1.3-.7z" id="XMLID_316_"/><path class="st0" d="M196.9 306.2c.4 0 .8-.2 1-.5.2-.3.4-.8.4-1.3s-.1-1-.4-1.3-.6-.4-1-.4c-.5 0-.9.1-1.2.4-.3.3-.4.7-.4 1.3 0 .6.1 1 .4 1.3.4.4.7.5 1.2.5z" id="XMLID_315_"/><path class="st0" d="M222.1 302.7c-.6 0-1 .3-1.3.7-.3.5-.5 1.2-.5 2.2v4.6c0 1 .2 1.7.5 2.2.3.5.8.7 1.4.7.6 0 1-.2 1.3-.7.3-.5.5-1.2.5-2.2v-4.6c0-1-.2-1.7-.5-2.2-.3-.5-.8-.7-1.4-.7z" id="XMLID_314_"/><path class="st0" d="M234.8 302.7c-.6 0-1 .3-1.3.7-.3.5-.5 1.2-.5 2.2v4.6c0 1 .2 1.7.5 2.2.3.5.8.7 1.4.7.6 0 1-.2 1.3-.7.3-.5.5-1.2.5-2.2v-4.6c0-1-.2-1.7-.5-2.2-.3-.5-.8-.7-1.4-.7z" id="XMLID_313_"/><path class="st0" d="M209.4 302.7c-.6 0-1 .3-1.3.8-.3.5-.5 1.2-.5 1.9 0 .8.1 1.4.4 1.9.3.5.7.7 1.3.7.4 0 .8-.1 1.1-.2.3-.2.6-.4.8-.6v-1.7c0-.9-.2-1.6-.5-2-.3-.6-.8-.8-1.3-.8z" id="XMLID_312_"/><path class="st0" d="M311.1 302.7c-.6 0-1 .3-1.3.7-.3.5-.5 1.2-.5 2.2v4.6c0 1 .2 1.7.5 2.2.3.5.8.7 1.4.7.6 0 1-.2 1.3-.7.3-.5.5-1.2.5-2.2v-4.6c0-1-.2-1.7-.5-2.2-.4-.5-.8-.7-1.4-.7z" id="XMLID_311_"/><path class="st0" d="M479.4 133.7H32.6C17.9 133.7 6 145.6 6 160.3v191.5c0 14.7 11.9 26.6 26.6 26.6h375.7v-14.6h10.6v14.6h60.5c14.7 0 26.6-11.9 26.6-26.6V160.3c0-14.7-11.9-26.6-26.6-26.6zm-207.7 46h12.6V234h-12.6v-54.3zm-15.1 75.1v-5.4h23v5.4h-8v25h-7.1v-25h-7.9zM231 179.7l10.6 39.6.4 2h.2l.4-1.8 10.8-39.7h13.2L249 234h-13.6l-17.5-54.3H231zm21.3 81.6v5.4h-10.7v7.6h12.8v5.4h-19.9v-30.4h19.9v5.4h-12.9v6.5h10.8zM169.2 202c0-6.7 2.1-12.2 6.4-16.5 4.3-4.4 9.8-6.5 16.7-6.5 6.8 0 12.4 2.2 16.6 6.5 4.3 4.4 6.4 9.9 6.4 16.5v9.8c0 6.7-2.1 12.2-6.4 16.5-4.2 4.3-9.8 6.5-16.6 6.5-6.9 0-12.5-2.2-16.7-6.5-4.3-4.3-6.4-9.8-6.4-16.5V202zm-1.5 47.3h7v30.4h-7v-30.4zm-26.2 5.5v-5.4h23v5.4h-8v25h-7.1v-25h-7.9zm-37.8-75.1h16.5l12.2 38h.2l12.3-38h16.7V234H149v-35h-.2l-12 35h-8.5l-11.7-34.5h-.2V234h-12.6v-54.3zm10 178.5h-3.3v-38.6h3.3v38.6zm7.6 0h-5.6v-38.6h5.6v38.6zm1.8-42.5h-3.6v-12.5h-3.1v-2.8l6.8-.6v15.9zm3.1 42.5h-2.3v-38.6h2.3v38.6zm8-55c-.3-.4-.7-.5-1.3-.5-.6 0-1 .2-1.3.7-.3.5-.5 1-.5 1.8h-3.5v-.1c0-1.4.4-2.7 1.4-3.7 1-1 2.3-1.5 3.9-1.5 1.7 0 3 .4 4 1.3.9.8 1.4 2 1.4 3.5 0 1-.3 1.9-.8 2.6-.5.8-1.5 1.9-2.8 3.4l-1.9 2.3v.1h6v2.8H128v-2.4l4.8-5.3c.6-.7 1.1-1.4 1.4-2 .3-.6.5-1.1.5-1.5-.1-.7-.3-1.2-.5-1.5zm2.1 55h-7v-38.6h7v38.6zm3.8 0h-1.6v-38.6h1.6v38.6zm8.5 0H143v-38.6h5.6v38.6zm3 0h-1.1v-38.6h1.1v38.6zm-1.6-43.5c-1.1.8-2.5 1.2-4.2 1.2-1.5 0-2.8-.4-3.8-1.2-1.1-.8-1.6-1.9-1.6-3.3v-.1h3.5c0 .5.2.9.5 1.3.4.3.8.5 1.3.5.7 0 1.2-.2 1.6-.5.4-.4.6-.8.6-1.3 0-.8-.2-1.3-.6-1.7-.4-.3-1-.5-1.7-.5H144v-2.7h1.7c.7 0 1.2-.2 1.5-.5.4-.4.5-.8.5-1.5 0-.5-.2-.9-.5-1.2-.4-.3-.8-.5-1.4-.5-.5 0-.8.1-1.2.4-.3.3-.5.6-.5 1.1h-3.5v-.1c0-1.2.4-2.2 1.5-3 1-.8 2.3-1.2 3.7-1.2 1.7 0 3 .4 4.1 1.2 1 .8 1.5 1.9 1.5 3.3 0 .7-.2 1.4-.6 1.9-.4.6-1 1.1-1.7 1.4.8.3 1.5.8 2 1.4.5.6.7 1.4.7 2.3-.2 1.4-.7 2.5-1.8 3.3zm9.1 43.5h-6v-38.6h6v38.6zm2.6 0h-.8v-38.6h.8v38.6zm1.1-42.5h-3.6v-3.3H153l-.2-2.2 6.4-10.1h3.6v9.5h1.6v2.8h-1.6v3.3zm4.1 42.5h-3.3v-38.6h3.3v38.6zm7.6 0h-5.6v-38.6h5.6v38.6zm.9-43.8c-1 1-2.3 1.5-3.9 1.5-1.7 0-3.1-.6-4.2-1.7s-1.6-2.7-1.6-4.6v-3.1c0-2.1.6-3.7 1.8-4.9 1.2-1.2 2.8-1.8 4.7-1.8.6 0 1.1.1 1.6.2s1 .3 1.6.5l-.6 2.6c-.5-.1-.9-.3-1.3-.3-.4-.1-.8-.1-1.3-.1-.9 0-1.6.3-2.1.9-.5.6-.8 1.6-.8 2.8v.1c.4-.4.9-.7 1.5-.9.6-.2 1.2-.3 1.9-.3 1.3 0 2.4.5 3.1 1.5s1.1 2.2 1.1 3.8c0 1.6-.5 2.8-1.5 3.8zm3.9 43.8H177v-38.6h2.3v38.6zm10.2 0h-7v-38.6h7v38.6zm.1-55.3c-1.7 1.9-2.8 3.6-3.4 5.2-.6 1.6-.9 3.4-.9 5.6v2h-3.6v-2c0-2.1.4-4 1.1-5.7.8-1.7 1.9-3.4 3.3-5h-7.8v-2.8h11.3v2.7zm3.7 55.3h-1.6v-38.6h1.6v38.6zm8.5 0h-5.6v-38.6h5.6v38.6zm-.9-43.5c-1 .8-2.4 1.2-4 1.2-1.7 0-3.1-.4-4.2-1.2-1.1-.8-1.6-1.9-1.6-3.4 0-.8.3-1.6.8-2.2.5-.6 1.2-1.1 2.1-1.5-.7-.3-1.3-.8-1.7-1.4-.4-.6-.6-1.3-.6-2 0-1.4.5-2.4 1.4-3.2 1-.7 2.2-1.1 3.8-1.1 1.5 0 2.7.4 3.6 1.1.9.7 1.4 1.8 1.4 3.2 0 .8-.2 1.4-.6 2-.4.6-.9 1.1-1.6 1.4.8.4 1.5.9 2 1.5s.7 1.4.7 2.2c.1 1.5-.4 2.6-1.5 3.4zm2.5-55.2h-6.9c0-1.9-.4-3.2-1.2-4-.8-.8-2.1-1.2-3.9-1.2-1.6 0-2.8.6-3.7 1.9-.8 1.3-1.3 3-1.3 5.1v6.4c0 2.1.5 3.8 1.4 5.1.9 1.3 2.3 1.9 4 1.9 1.6 0 2.8-.4 3.5-1.2.7-.8 1.1-2.2 1.1-4.1h6.9v.1c.1 3.5-.9 6.1-2.9 7.9-2 1.8-4.9 2.7-8.5 2.7-3.8 0-6.8-1.1-9-3.4-2.3-2.3-3.4-5.3-3.4-9v-6.3c0-3.7 1.1-6.7 3.3-9 2.2-2.3 5.1-3.5 8.7-3.5 3.9 0 6.8.9 8.9 2.7 2.1 1.8 3.1 4.4 3.1 7.8l-.1.1zm1.3 98.7h-1.1v-38.6h1.1v38.6zm7.6 0h-6v-38.6h6v38.6zm-3.3-42.3c-.5 0-1.1-.1-1.7-.2-.6-.1-1.1-.3-1.6-.5l.6-2.6c.5.2.9.3 1.3.4.4.1.9.1 1.4.1.7 0 1.2-.3 1.6-.8.4-.5.6-1.2.6-2.1v-.9c-.4.4-.8.8-1.2 1-.5.2-1 .3-1.5.3-1.4 0-2.5-.5-3.3-1.4-.8-1-1.2-2.2-1.2-3.8 0-1.5.5-2.8 1.5-3.9s2.3-1.6 3.9-1.6 2.9.5 3.9 1.6 1.5 2.6 1.5 4.5v3.9c0 1.8-.6 3.2-1.7 4.3-1.1 1.2-2.5 1.7-4.1 1.7zm5.9 42.3h-.8v-38.6h.8v38.6zm-.5-90.7v12.2h-7.1v-30.4h7.1v11.9h1.5l6.9-11.9h8.9l-9.6 13.8 10.4 16.6h-9.1l-7-12.2h-2zm5.4 90.7h-3.3v-38.6h3.3v38.6zm7.6 0h-5.6v-38.6h5.6v38.6zm.2-48.2c0 1.9-.5 3.3-1.5 4.4-1 1.1-2.3 1.6-3.9 1.6s-3-.5-4-1.6-1.5-2.5-1.5-4.4v-4.1c0-1.9.5-3.3 1.5-4.4 1-1.1 2.3-1.6 3.9-1.6s2.9.5 3.9 1.6 1.5 2.5 1.5 4.4v4.1zm4.6 48.2h-2.3v-38.6h2.3v38.6zm-1.3-43.9c-1-1.1-1.5-2.5-1.5-4.4v-4.1c0-1.9.5-3.3 1.5-4.4 1-1.1 2.3-1.6 3.9-1.6s2.9.5 3.9 1.6 1.5 2.5 1.5 4.4v4.1c0 1.9-.5 3.3-1.5 4.4-1 1.1-2.3 1.6-3.9 1.6s-2.9-.5-3.9-1.6zm11.5 43.9h-7v-38.6h7v38.6zm3.8 0h-1.6v-38.6h1.6v38.6zm-2.8-55v-2.8l6.8-.6v15.8h-3.6v-12.5h-3.2zm11.3 55h-5.6v-38.6h5.6v38.6zm2.9 0h-1.1v-38.6h1.1v38.6zm7.6 0h-6v-38.6h6v38.6zm.7-42.5H255v-2.4l4.8-5.3c.6-.7 1.1-1.4 1.4-2 .3-.6.5-1.1.5-1.5 0-.6-.1-1.1-.4-1.4-.3-.4-.7-.5-1.3-.5-.6 0-1 .2-1.3.7-.3.5-.5 1-.5 1.8h-3.5v-.1c0-1.4.4-2.7 1.4-3.7 1-1 2.3-1.5 3.9-1.5 1.7 0 3 .4 4 1.3.9.8 1.4 2 1.4 3.5 0 1-.3 1.9-.8 2.6-.5.8-1.5 1.9-2.8 3.4l-1.9 2.3v.1h6v2.7zm1.9 42.5h-.8v-38.6h.8v38.6zm-.3-46.8l3.5-.1c0 .5.2.9.5 1.3.4.3.8.5 1.3.5.7 0 1.2-.2 1.6-.5.4-.4.6-.8.6-1.3 0-.8-.2-1.3-.6-1.7-.4-.3-1-.5-1.7-.5H271v-2.7h1.7c.7 0 1.2-.2 1.5-.5.4-.4.5-.8.5-1.5 0-.5-.2-.9-.5-1.2-.4-.3-.8-.5-1.4-.5-.5 0-.8.1-1.2.4-.3.3-.5.6-.5 1.1h-3.5v-.1c0-1.2.4-2.2 1.5-3 1-.8 2.3-1.2 3.7-1.2 1.7 0 3 .4 4.1 1.2 1 .8 1.5 1.9 1.5 3.3 0 .7-.2 1.4-.6 1.9-.4.6-1 1.1-1.7 1.4.8.3 1.5.8 2 1.4.5.6.7 1.4.7 2.3 0 1.4-.5 2.6-1.6 3.4-1.1.8-2.5 1.2-4.2 1.2-1.5 0-2.8-.4-3.8-1.2-1.3-.8-1.8-1.9-1.7-3.4zm5.4 46.8h-3.3v-38.6h3.3v38.6zm7.7 0H275v-38.6h5.6v38.6zm4.8 0h-2.3v-38.6h2.3v38.6zm1.5-44.5v2h-3.6v-2c0-2.1.4-4 1.1-5.7.8-1.7 1.9-3.4 3.3-5H280v-2.8h11.3v2.8c-1.7 1.9-2.8 3.6-3.4 5.2-.7 1.5-1 3.3-1 5.5zm8.7 44.5h-7v-38.6h7v38.6zm3.8 0h-1.6v-38.6h1.6v38.6zm.2-44.5v2H296v-2c0-2.1.4-4 1.1-5.7.8-1.7 1.9-3.4 3.3-5h-7.8v-2.8H304v2.8c-1.7 1.9-2.8 3.6-3.4 5.2-.7 1.5-1 3.3-1 5.5zm8.3 44.5h-5.6v-38.6h5.6v38.6zm2.9 0h-1.1v-38.6h1.1v38.6zm-3.6-43.9c-1-1.1-1.5-2.5-1.5-4.4v-4.1c0-1.9.5-3.3 1.5-4.4 1-1.1 2.3-1.6 3.9-1.6s2.9.5 3.9 1.6 1.5 2.5 1.5 4.4v4.1c0 1.9-.5 3.3-1.5 4.4-1 1.1-2.3 1.6-3.9 1.6s-2.9-.5-3.9-1.6zm11.2 43.9h-6v-38.6h6v38.6zm2.5 0h-.8v-38.6h.8v38.6zm8.4-168.8h-23v11.7h19.1v9.7h-19.1v13.5h22.9v9.7h-35.5v-54.3h35.6v9.7zM430.1 213c.5.3 1 .5 1.8.5v3.5h-.1c-1.4 0-2.7-.4-3.7-1.4-1-1-1.5-2.3-1.5-3.9 0-1.7.4-3 1.3-4 .8-.9 2-1.4 3.5-1.4 1 0 1.9.3 2.6.8.8.5 1.9 1.5 3.4 2.8l2.3 1.9h.1v-6h2.8v10.8h-2.4l-5.3-4.8c-.7-.6-1.4-1.1-2-1.4-.6-.3-1.1-.5-1.5-.5-.6 0-1.1.1-1.4.4-.4.3-.5.7-.5 1.3-.1.7.2 1.1.6 1.4zm12.4 8.5v3.6H430v3.1h-2.8l-.6-6.8h15.9zm-23.6 125.3h-10.6v-21.3h10.6v21.3zm0-38.3h-10.6v-21.3h10.6v21.3zm0-38.2h-10.6V249h10.6v21.3zm0-38.2h-10.6v-21.3h10.6v21.3zm0-38.3h-10.6v-21.3h10.6v21.3zm0-38.2h-10.6v-21.3h10.6v21.3zm23.6 196.6H430v3.1h-2.8l-.6-6.8h15.8v3.7zm0-8.4h-2.4l-5.3-4.8c-.7-.6-1.4-1.1-2-1.4-.6-.3-1.1-.5-1.5-.5-.6 0-1.1.1-1.4.4-.4.3-.5.7-.5 1.3 0 .6.2 1 .7 1.3.5.3 1 .5 1.8.5v3.5h-.1c-1.4 0-2.7-.4-3.7-1.4-1-1-1.5-2.3-1.5-3.9 0-1.7.4-3 1.3-4 .8-.9 2-1.4 3.5-1.4 1 0 1.9.3 2.6.8.8.5 1.9 1.5 3.4 2.8l2.3 1.9h.1v-6h2.8v10.9zm-1-14.1c-.8 1.1-1.9 1.6-3.3 1.6h-.1v-3.5c.5 0 .9-.2 1.3-.5.3-.3.5-.8.5-1.3 0-.7-.2-1.2-.5-1.6-.4-.4-.8-.6-1.3-.6-.8 0-1.3.2-1.7.6-.3.4-.5 1-.5 1.7v1.7h-2.7v-1.7c0-.7-.2-1.2-.5-1.5-.3-.4-.8-.5-1.5-.5-.5 0-.9.2-1.2.5-.3.4-.5.8-.5 1.4 0 .5.1.8.4 1.2.3.3.6.5 1.1.5v3.5h-.1c-1.2 0-2.2-.4-3-1.5-.8-1-1.2-2.3-1.2-3.7 0-1.7.4-3 1.2-4.1.8-1 1.9-1.5 3.3-1.5.7 0 1.4.2 1.9.6.6.4 1.1 1 1.4 1.7.3-.8.8-1.5 1.4-2 .6-.5 1.4-.7 2.3-.7 1.4 0 2.6.5 3.4 1.6.8 1.1 1.2 2.5 1.2 4.2-.1 1.6-.5 2.8-1.3 3.9zm1-20.8v3.6h-3.3v6.2l-2.2.2-10.1-6.4v-3.6h9.5v-1.6h2.8v1.6h3.3zm-1.5-4.6c-1.1 1.1-2.7 1.6-4.6 1.6h-3.1c-2.1 0-3.7-.6-4.9-1.8-1.2-1.2-1.8-2.8-1.8-4.7 0-.6.1-1.1.2-1.6s.3-1 .5-1.6l2.6.6c-.1.5-.3.9-.3 1.3-.1.4-.1.8-.1 1.3 0 .9.3 1.6.9 2.1.6.5 1.6.8 2.8.8h.1c-.4-.4-.7-.9-.9-1.5-.2-.6-.3-1.2-.3-1.9 0-1.3.5-2.4 1.5-3.1 1-.7 2.2-1.1 3.8-1.1 1.5 0 2.8.5 3.8 1.5s1.5 2.3 1.5 3.9c0 1.8-.6 3.2-1.7 4.2zm-14.1-10.9v-11.3h2.8c1.9 1.7 3.6 2.8 5.2 3.4 1.6.6 3.4.9 5.6.9h2v3.6h-2c-2.1 0-4-.4-5.7-1.1-1.7-.8-3.4-1.9-5-3.3v7.8h-2.9zm14.6-14.5c-.8 1.1-1.9 1.6-3.4 1.6-.8 0-1.6-.3-2.2-.8-.6-.5-1.1-1.2-1.5-2.1-.3.7-.8 1.3-1.4 1.7-.6.4-1.3.6-2 .6-1.4 0-2.4-.5-3.2-1.4-.7-1-1.1-2.2-1.1-3.8 0-1.5.4-2.7 1.1-3.6.7-.9 1.8-1.4 3.2-1.4.8 0 1.4.2 2 .6.6.4 1.1.9 1.4 1.6.4-.8.9-1.5 1.5-2s1.4-.7 2.2-.7c1.5 0 2.6.5 3.4 1.6.8 1 1.2 2.4 1.2 4s-.4 3-1.2 4.1zm1-14.5c-.1.6-.3 1.1-.5 1.6l-2.6-.6c.2-.5.3-.9.4-1.3.1-.4.1-.9.1-1.4 0-.7-.3-1.2-.8-1.6-.5-.4-1.2-.6-2.1-.6h-.9c.4.4.8.8 1 1.2.2.5.3 1 .3 1.5 0 1.4-.5 2.5-1.4 3.3-1 .8-2.2 1.2-3.8 1.2-1.5 0-2.8-.5-3.9-1.5s-1.6-2.3-1.6-3.9.5-2.9 1.6-3.9 2.6-1.5 4.5-1.5h3.9c1.8 0 3.2.6 4.3 1.7 1.1 1.1 1.6 2.5 1.6 4.2.1.4 0 1-.1 1.6zm-1.4-10.9c-1.1 1-2.5 1.5-4.4 1.5h-4.1c-1.9 0-3.3-.5-4.4-1.5-1.1-1-1.6-2.3-1.6-3.9s.5-2.9 1.6-3.9 2.5-1.5 4.4-1.5h4.1c1.9 0 3.3.5 4.4 1.5 1.1 1 1.6 2.3 1.6 3.9 0 1.5-.5 2.9-1.6 3.9zm0-12.8c-1.1 1-2.5 1.5-4.4 1.5h-4.1c-1.9 0-3.3-.5-4.4-1.5-1.1-1-1.6-2.3-1.6-3.9s.5-2.9 1.6-3.9 2.5-1.5 4.4-1.5h4.1c1.9 0 3.3.5 4.4 1.5 1.1 1 1.6 2.3 1.6 3.9s-.5 3-1.6 3.9zm.4-38.1c-.8 1.1-1.9 1.6-3.3 1.6h-.1v-3.5c.5 0 .9-.2 1.3-.5.3-.3.5-.8.5-1.3 0-.7-.2-1.2-.5-1.6-.4-.4-.8-.6-1.3-.6-.8 0-1.3.2-1.7.6-.3.4-.5 1-.5 1.7v1.7h-2.7V199c0-.7-.2-1.2-.5-1.5-.3-.3-.8-.5-1.5-.5-.5 0-.9.2-1.2.5-.3.4-.5.8-.5 1.4 0 .5.1.8.4 1.2.3.3.6.5 1.1.5v3.5h-.1c-1.2 0-2.2-.4-3-1.5-.8-1-1.2-2.3-1.2-3.7 0-1.7.4-3 1.2-4.1.8-1 1.9-1.5 3.3-1.5.7 0 1.4.2 1.9.6.6.4 1.1 1 1.4 1.7.3-.8.8-1.5 1.4-2 .6-.5 1.4-.7 2.3-.7 1.4 0 2.6.5 3.4 1.6.8 1.1 1.2 2.5 1.2 4.2-.1 1.6-.5 2.8-1.3 3.9zm-11.8-22.2c1.9 1.7 3.6 2.8 5.2 3.4 1.6.6 3.4.9 5.6.9h2v3.6h-2c-2.1 0-4-.4-5.7-1.1-1.7-.8-3.4-1.9-5-3.3v7.8H427v-11.3h2.7zm-2.8-1.4v-11.3h2.8c1.9 1.7 3.6 2.8 5.2 3.4 1.6.6 3.4.9 5.6.9h2v3.6h-2c-2.1 0-4-.4-5.7-1.1-1.7-.8-3.4-1.9-5-3.3v7.8h-2.9zm14.2-14.5c-1.1 1-2.5 1.5-4.4 1.5h-4.1c-1.9 0-3.3-.5-4.4-1.5-1.1-1-1.6-2.3-1.6-3.9s.5-2.9 1.6-3.9 2.5-1.5 4.4-1.5h4.1c1.9 0 3.3.5 4.4 1.5 1.1 1 1.6 2.3 1.6 3.9s-.5 2.9-1.6 3.9zm57.2 196.8h-51.9V358h51.9v3.3zm0-5.4h-51.9v-5.6h51.9v5.6zm0-8.1h-51.9v-2.3h51.9v2.3zm0-5.5h-51.9v-7h51.9v7zm0-9.2h-51.9v-1.6h51.9v1.6zm0-4.5h-51.9V323h51.9v5.6zm0-7.4h-51.9v-1.1h51.9v1.1zm0-2.7h-51.9v-6h51.9v6zm0-7.7h-51.9v-.8h51.9v.8zm0-2.7h-51.9v-3.3h51.9v3.3zm0-5.4h-51.9v-5.6h51.9v5.6zm0-8.1h-51.9v-2.3h51.9v2.3zm0-5.5h-51.9v-7h51.9v7zm0-9.2h-51.9v-1.6h51.9v1.6zm0-4.5h-51.9v-5.6h51.9v5.6zm0-7.4h-51.9v-1.1h51.9v1.1zm0-2.7h-51.9v-6h51.9v6zm0-7.7h-51.9v-.8h51.9v.8zm0-2.4h-51.9v-3.3h51.9v3.3zm0-5.3h-51.9v-5.6h51.9v5.6zm0-8.2h-51.9v-2.3h51.9v2.3zm0-5.4h-51.9v-7h51.9v7zm0-9.2h-51.9v-1.6h51.9v1.6zm0-4.5h-51.9V217h51.9v5.6zm0-7.4h-51.9v-1.1h51.9v1.1zm0-2.7h-51.9v-6h51.9v6zm0-7.8h-51.9v-.8h51.9v.8zm0-2.7h-51.9v-3.3h51.9v3.3zm0-5.3h-51.9v-5.6h51.9v5.6zm0-8.2h-51.9v-2.3h51.9v2.3zm0-5.4h-51.9v-7h51.9v7zm0-9.2h-51.9v-1.6h51.9v1.6zm0-4.5h-51.9v-5.6h51.9v5.6zm0-7.4h-51.9v-1.1h51.9v1.1zm0-2.7h-51.9v-6h51.9v6zm0-7.8h-51.9v-.8h51.9v.8z" id="XMLID_188_"/><path class="st0" d="M192.3 225.1c3.3 0 5.9-1.2 7.7-3.7 1.8-2.5 2.7-5.7 2.7-9.6V202c0-3.9-.9-7.1-2.7-9.5-1.8-2.5-4.4-3.7-7.7-3.7-3.4 0-6 1.2-7.8 3.7-1.8 2.5-2.7 5.7-2.7 9.6v9.8c0 3.9.9 7.1 2.7 9.6 1.8 2.3 4.4 3.6 7.8 3.6z" id="XMLID_187_"/></g></svg>